# This file uses centimeters as units for non-parametric coordinates.

mtllib floorCenter.mtl
g default
v -4.844272 -0.001737 4.744278
v -4.844272 -0.001737 2.913781
v -4.844272 0.024507 4.744278
v -4.844272 0.024507 2.913781
v -10.466829 0.024507 4.744278
v -10.466829 0.024507 2.913781
v -10.466829 -0.001737 4.744278
v -10.466829 -0.001737 2.913781
v -5.316591 0.024507 3.873908
v -5.101517 0.024507 2.913781
v -5.183668 0.024507 4.744278
vt 0.375000 0.000000
vt 0.625000 0.000000
vt 0.375000 0.250000
vt 0.625000 0.250000
vt 0.375000 0.500000
vt 0.625000 0.500000
vt 0.375000 0.750000
vt 0.625000 0.750000
vt 0.375000 1.000000
vt 0.625000 1.000000
vt 0.875000 0.000000
vt 0.875000 0.250000
vt 0.125000 0.000000
vt 0.125000 0.250000
vt 0.493871 0.271001
vt 0.625000 0.261438
vt 0.636438 0.250000
vt 0.359909 0.250000
vt 0.375000 0.265091
vn -1.000000 0.000000 -0.000000
vn -1.000000 0.000000 -0.000000
vn -1.000000 0.000000 -0.000000
vn -1.000000 0.000000 -0.000000
vn 0.000000 -1.000000 0.000000
vn 0.000000 -1.000000 0.000000
vn 0.000000 -1.000000 0.000000
vn 0.000000 -1.000000 0.000000
vn 0.000000 0.000006 -1.000000
vn 0.000000 0.000006 -1.000000
vn 0.000000 0.000006 -1.000000
vn 0.000000 0.000006 -1.000000
vn 0.000000 0.000006 -1.000000
vn 0.000000 0.000000 1.000000
vn 0.000000 0.000000 1.000000
vn 0.000000 0.000000 1.000000
vn 0.000000 0.000000 1.000000
vn 0.000000 0.000000 1.000000
vn 0.000000 1.000000 0.000000
vn 0.000000 1.000000 0.000000
vn 0.000000 1.000000 0.000000
vn 0.000000 1.000000 0.000000
vn 0.000000 1.000000 0.000000
s off
g pasted__pasted__pasted__pCube1 pasted__pasted__group pasted__group9 group10
usemtl pasted__pasted__pasted__lambert4SG1
f 5/5/1 6/6/2 8/8/3 7/7/4
f 7/7/5 8/8/6 2/10/7 1/9/8
f 2/2/9 8/11/10 6/12/11 10/17/12 4/4/13
f 7/13/14 1/1/15 3/3/16 11/18/17 5/14/18
f 11/19/19 9/15/20 10/16/21 6/6/22 5/5/23
g default
v -4.342681 -0.001737 1.393135
v -3.048324 -0.001737 0.098778
v -4.342681 0.024507 1.393135
v -3.048324 0.024507 0.098778
v -8.746665 0.024507 -3.010848
v -7.452308 0.024507 -4.305206
v -8.746665 -0.001737 -3.010848
v -7.452308 -0.001737 -4.305206
v -4.097190 0.024507 0.407737
v -3.249817 0.024507 -0.102715
v -4.608520 0.024507 1.127296
vt 0.375000 0.000000
vt 0.625000 0.000000
vt 0.375000 0.250000
vt 0.625000 0.250000
vt 0.375000 0.500000
vt 0.625000 0.500000
vt 0.375000 0.750000
vt 0.625000 0.750000
vt 0.375000 1.000000
vt 0.625000 1.000000
vt 0.875000 0.000000
vt 0.875000 0.250000
vt 0.125000 0.000000
vt 0.125000 0.250000
vt 0.493871 0.271001
vt 0.625000 0.261438
vt 0.636438 0.250000
vt 0.359909 0.250000
vt 0.375000 0.265091
vn -0.707107 0.000000 -0.707107
vn -0.707107 0.000000 -0.707107
vn -0.707107 0.000000 -0.707107
vn -0.707107 0.000000 -0.707107
vn 0.000000 -1.000000 0.000000
vn 0.000000 -1.000000 0.000000
vn 0.000000 -1.000000 0.000000
vn 0.000000 -1.000000 0.000000
vn 0.707107 0.000001 -0.707107
vn 0.707107 0.000001 -0.707107
vn 0.707107 0.000001 -0.707107
vn 0.707107 0.000001 -0.707107
vn 0.707107 0.000001 -0.707107
vn -0.707107 -0.000002 0.707107
vn -0.707107 -0.000002 0.707107
vn -0.707107 -0.000002 0.707107
vn -0.707107 -0.000002 0.707107
vn -0.707107 -0.000002 0.707107
vn 0.000000 1.000000 0.000000
vn 0.000000 1.000000 0.000000
vn 0.000000 1.000000 0.000000
vn 0.000000 1.000000 0.000000
vn 0.000000 1.000000 0.000000
s off
g pasted__pasted__pasted__pasted__pCube1 pasted__pasted__pasted__group pasted__pasted__group9 pasted__group10 group11
usemtl pasted__pasted__pasted__pasted__lambert4SG1
f 16/24/24 17/25/25 19/27/26 18/26/27
f 18/26/28 19/27/29 13/29/30 12/28/31
f 13/21/32 19/30/33 17/31/34 21/36/35 15/23/36
f 18/32/37 12/20/38 14/22/39 22/37/40 16/33/41
f 22/38/42 20/34/43 21/35/44 17/25/45 16/24/46
g default
v -0.879333 -0.001737 -1.487870
v 0.951164 -0.001737 -1.487870
v -0.879333 0.024507 -1.487870
v 0.951164 0.024507 -1.487870
v -0.879333 0.024507 -3.604825
v 0.951164 0.024507 -3.604825
v -0.879333 -0.001737 -3.604825
v 0.951164 -0.001737 -3.604825
v -0.008963 0.024507 -1.665703
vt 0.375000 0.000000
vt 0.625000 0.000000
vt 0.375000 0.250000
vt 0.625000 0.250000
vt 0.375000 0.500000
vt 0.625000 0.500000
vt 0.375000 0.750000
vt 0.625000 0.750000
vt 0.375000 1.000000
vt 0.625000 1.000000
vt 0.875000 0.000000
vt 0.875000 0.250000
vt 0.125000 0.000000
vt 0.125000 0.250000
vt 0.493871 0.271001
vn 0.000000 1.000000 0.000000
vn 0.000000 1.000000 0.000000
vn 0.000000 1.000000 0.000000
vn 0.000000 1.000000 0.000000
vn 0.000000 1.000000 0.000000
vn 0.000000 0.000000 -1.000000
vn 0.000000 0.000000 -1.000000
vn 0.000000 0.000000 -1.000000
vn 0.000000 0.000000 -1.000000
vn 0.000000 -1.000000 0.000000
vn 0.000000 -1.000000 0.000000
vn 0.000000 -1.000000 0.000000
vn 0.000000 -1.000000 0.000000
vn 1.000000 0.000000 0.000000
vn 1.000000 0.000000 0.000000
vn 1.000000 0.000000 0.000000
vn 1.000000 0.000000 0.000000
vn -1.000000 0.000000 0.000000
vn -1.000000 0.000000 0.000000
vn -1.000000 0.000000 0.000000
vn -1.000000 0.000000 0.000000
s off
g pasted__pCube1 group
usemtl pasted__lambert4SG
f 25/41/47 31/53/48 26/42/49 28/44/50 27/43/51
f 27/43/52 28/44/53 30/46/54 29/45/55
f 29/45/56 30/46/57 24/48/58 23/47/59
f 24/40/60 30/49/61 28/50/62 26/42/63
f 29/51/64 23/39/65 25/41/66 27/52/67
g default
v 3.010025 -0.001737 -0.016023
v 4.304382 -0.001737 1.278334
v 3.010025 0.024507 -0.016023
v 4.304382 0.024507 1.278334
v 7.414009 0.024507 -4.420007
v 8.708366 0.024507 -3.125650
v 7.414009 -0.001737 -4.420007
v 8.708366 -0.001737 -3.125650
v 3.995423 0.024507 0.229469
v 4.505875 0.024507 1.076841
v 3.275864 0.024507 -0.281862
vt 0.375000 0.000000
vt 0.625000 0.000000
vt 0.375000 0.250000
vt 0.625000 0.250000
vt 0.375000 0.500000
vt 0.625000 0.500000
vt 0.375000 0.750000
vt 0.625000 0.750000
vt 0.375000 1.000000
vt 0.625000 1.000000
vt 0.875000 0.000000
vt 0.875000 0.250000
vt 0.125000 0.000000
vt 0.125000 0.250000
vt 0.493871 0.271001
vt 0.625000 0.261438
vt 0.636438 0.250000
vt 0.359909 0.250000
vt 0.375000 0.265091
vn 0.707107 0.000000 -0.707107
vn 0.707107 0.000000 -0.707107
vn 0.707107 0.000000 -0.707107
vn 0.707107 0.000000 -0.707107
vn 0.000000 -1.000000 0.000000
vn 0.000000 -1.000000 0.000000
vn 0.000000 -1.000000 0.000000
vn 0.000000 -1.000000 0.000000
vn 0.707107 0.000001 0.707107
vn 0.707107 0.000001 0.707107
vn 0.707107 0.000001 0.707107
vn 0.707107 0.000001 0.707107
vn 0.707107 0.000001 0.707107
vn -0.707107 -0.000002 -0.707107
vn -0.707107 -0.000002 -0.707107
vn -0.707107 -0.000002 -0.707107
vn -0.707107 -0.000002 -0.707107
vn -0.707107 -0.000002 -0.707107
vn -0.000000 1.000000 0.000000
vn -0.000000 1.000000 0.000000
vn -0.000000 1.000000 0.000000
vn -0.000000 1.000000 0.000000
vn -0.000000 1.000000 0.000000
s off
g pasted__pasted__pasted__pasted__pasted__pCube1 pasted__pasted__pasted__pasted__group pasted__pasted__pasted__group9 pasted__pasted__group10 pasted__group11 group12
usemtl pasted__pasted__pasted__pasted__pasted__lambert4SG1
f 36/58/68 37/59/69 39/61/70 38/60/71
f 38/60/72 39/61/73 33/63/74 32/62/75
f 33/55/76 39/64/77 37/65/78 41/70/79 35/57/80
f 38/66/81 32/54/82 34/56/83 42/71/84 36/67/85
f 42/72/86 40/68/87 41/69/88 37/59/89 36/58/90
g default
v 4.734648 -0.001737 2.907328
v 4.734648 -0.001737 4.737826
v 4.734648 0.024507 2.907328
v 4.734648 0.024507 4.737826
v 11.039719 0.024507 2.907328
v 11.039719 0.024507 4.737826
v 11.039719 -0.001737 2.907328
v 11.039719 -0.001737 4.737826
v 5.264301 0.024507 3.777698
v 5.023120 0.024507 4.737826
v 5.115243 0.024507 2.907328
vt 0.375000 0.000000
vt 0.625000 0.000000
vt 0.375000 0.250000
vt 0.625000 0.250000
vt 0.375000 0.500000
vt 0.625000 0.500000
vt 0.375000 0.750000
vt 0.625000 0.750000
vt 0.375000 1.000000
vt 0.625000 1.000000
vt 0.875000 0.000000
vt 0.875000 0.250000
vt 0.125000 0.000000
vt 0.125000 0.250000
vt 0.493871 0.271001
vt 0.625000 0.261438
vt 0.636438 0.250000
vt 0.359909 0.250000
vt 0.375000 0.265091
vn 1.000000 0.000000 0.000000
vn 1.000000 0.000000 0.000000
vn 1.000000 0.000000 0.000000
vn 1.000000 0.000000 0.000000
vn 0.000000 -1.000000 0.000000
vn 0.000000 -1.000000 0.000000
vn 0.000000 -1.000000 0.000000
vn 0.000000 -1.000000 0.000000
vn -0.000000 0.000004 1.000000
vn -0.000000 0.000004 1.000000
vn -0.000000 0.000004 1.000000
vn -0.000000 0.000004 1.000000
vn -0.000000 0.000004 1.000000
vn 0.000000 -0.000002 -1.000000
vn 0.000000 -0.000002 -1.000000
vn 0.000000 -0.000002 -1.000000
vn 0.000000 -0.000002 -1.000000
vn 0.000000 -0.000002 -1.000000
vn -0.000000 1.000000 -0.000000
vn -0.000000 1.000000 -0.000000
vn -0.000000 1.000000 -0.000000
vn -0.000000 1.000000 -0.000000
vn -0.000000 1.000000 -0.000000
s off
g pasted__pasted__pasted__pasted__pCube1 pasted__pasted__pasted__group pasted__pasted__group9 pasted__group10 group13
usemtl pasted__pasted__pasted__pasted__lambert4SG2
f 47/77/91 48/78/92 50/80/93 49/79/94
f 49/79/95 50/80/96 44/82/97 43/81/98
f 44/74/99 50/83/100 48/84/101 52/89/102 46/76/103
f 49/85/104 43/73/105 45/75/106 53/90/107 47/86/108
f 53/91/109 51/87/110 52/88/111 48/78/112 47/77/113
g default
v 5.113124 0.006521 2.042470
v 4.349483 0.006521 0.543740
v 3.160084 0.006521 -0.645658
v 1.661354 0.006521 -1.409299
v 0.000000 0.006521 -1.672431
v -1.661354 0.006521 -1.409298
v -3.160083 0.006521 -0.645657
v -4.349481 0.006521 0.543741
v -5.113122 0.006521 2.042471
v -5.376254 0.006521 3.703825
v -5.113122 0.006521 5.365178
v -4.349481 0.006521 6.863908
v -3.160083 0.006521 8.053305
v -1.661354 0.006521 8.816946
v -0.000000 0.006521 9.080078
v 1.661353 0.006521 8.816946
v 3.160082 0.006521 8.053305
v 4.349480 0.006521 6.863907
v 5.113121 0.006521 5.365178
v 5.376253 0.006521 3.703825
v 5.113124 0.032745 2.042470
v 4.349483 0.032745 0.543740
v 3.160084 0.032745 -0.645658
v 1.661354 0.032745 -1.409299
v 0.000000 0.032745 -1.672431
v -1.661354 0.032745 -1.409298
v -3.160083 0.032745 -0.645657
v -4.349481 0.032745 0.543741
v -5.113122 0.032745 2.042471
v -5.376254 0.032745 3.703825
v -5.113122 0.032745 5.365178
v -4.349481 0.032745 6.863908
v -3.160083 0.032745 8.053305
v -1.661354 0.032745 8.816946
v -0.000000 0.032745 9.080078
v 1.661353 0.032745 8.816946
v 3.160082 0.032745 8.053305
v 4.349480 0.032745 6.863907
v 5.113121 0.032745 5.365178
v 5.376253 0.032745 3.703825
v 0.000000 0.006521 3.703825
v 0.000000 0.032745 3.703825
vt 0.648603 0.107966
vt 0.626409 0.064408
vt 0.591842 0.029841
vt 0.548284 0.007647
vt 0.500000 -0.000000
vt 0.451716 0.007647
vt 0.408159 0.029841
vt 0.373591 0.064409
vt 0.351397 0.107966
vt 0.343750 0.156250
vt 0.351397 0.204534
vt 0.373591 0.248091
vt 0.408159 0.282659
vt 0.451716 0.304853
vt 0.500000 0.312500
vt 0.548284 0.304853
vt 0.591841 0.282659
vt 0.626409 0.248091
vt 0.648603 0.204534
vt 0.656250 0.156250
vt 0.375000 0.312500
vt 0.387500 0.312500
vt 0.400000 0.312500
vt 0.412500 0.312500
vt 0.425000 0.312500
vt 0.437500 0.312500
vt 0.450000 0.312500
vt 0.462500 0.312500
vt 0.475000 0.312500
vt 0.487500 0.312500
vt 0.500000 0.312500
vt 0.512500 0.312500
vt 0.525000 0.312500
vt 0.537500 0.312500
vt 0.550000 0.312500
vt 0.562500 0.312500
vt 0.575000 0.312500
vt 0.587500 0.312500
vt 0.600000 0.312500
vt 0.612500 0.312500
vt 0.625000 0.312500
vt 0.375000 0.687500
vt 0.387500 0.687500
vt 0.400000 0.687500
vt 0.412500 0.687500
vt 0.425000 0.687500
vt 0.437500 0.687500
vt 0.450000 0.687500
vt 0.462500 0.687500
vt 0.475000 0.687500
vt 0.487500 0.687500
vt 0.500000 0.687500
vt 0.512500 0.687500
vt 0.525000 0.687500
vt 0.537500 0.687500
vt 0.550000 0.687500
vt 0.562500 0.687500
vt 0.575000 0.687500
vt 0.587500 0.687500
vt 0.600000 0.687500
vt 0.612500 0.687500
vt 0.625000 0.687500
vt 0.975529 0.654508
vt 0.904509 0.793893
vt 0.500000 0.500000
vt 0.793893 0.904508
vt 0.654509 0.975528
vt 0.500000 1.000000
vt 0.345492 0.975528
vt 0.206107 0.904508
vt 0.095492 0.793893
vt 0.024472 0.654508
vt 0.000000 0.500000
vt 0.024472 0.345491
vt 0.095492 0.206107
vt 0.206107 0.095491
vt 0.345492 0.024472
vt 0.500000 0.000000
vt 0.654509 0.024472
vt 0.793893 0.095491
vt 0.904509 0.206107
vt 0.975528 0.345491
vt 0.500000 0.156250
vt 1.000000 0.500000
vn 0.951057 0.000000 -0.309016
vn 0.809017 0.000000 -0.587785
vn 0.809017 0.000000 -0.587785
vn 0.951057 0.000000 -0.309016
vn 0.587785 0.000000 -0.809017
vn 0.587785 0.000000 -0.809017
vn 0.309017 0.000000 -0.951057
vn 0.309017 0.000000 -0.951057
vn -0.000000 0.000000 -1.000000
vn -0.000000 0.000000 -1.000000
vn -0.309017 0.000000 -0.951057
vn -0.309017 0.000000 -0.951057
vn -0.587785 0.000000 -0.809017
vn -0.587785 0.000000 -0.809017
vn -0.809017 0.000000 -0.587785
vn -0.809017 0.000000 -0.587785
vn -0.951057 0.000000 -0.309017
vn -0.951057 0.000000 -0.309017
vn -1.000000 0.000000 0.000000
vn -1.000000 0.000000 0.000000
vn -0.951057 0.000000 0.309017
vn -0.951057 0.000000 0.309017
vn -0.809017 0.000000 0.587785
vn -0.809017 0.000000 0.587785
vn -0.587785 0.000000 0.809017
vn -0.587785 0.000000 0.809017
vn -0.309017 0.000000 0.951057
vn -0.309017 0.000000 0.951057
vn -0.000000 0.000000 1.000000
vn -0.000000 0.000000 1.000000
vn 0.309017 0.000000 0.951057
vn 0.309017 0.000000 0.951057
vn 0.587785 0.000000 0.809017
vn 0.587785 0.000000 0.809017
vn 0.809017 0.000000 0.587785
vn 0.809017 0.000000 0.587785
vn 0.951057 0.000000 0.309017
vn 0.951057 0.000000 0.309017
vn 1.000000 0.000000 0.000001
vn 1.000000 0.000000 0.000001
vn 0.000000 -1.000000 0.000000
vn 0.000000 -1.000000 -0.000000
vn 0.000000 -1.000000 -0.000000
vn 0.000000 -1.000000 0.000000
vn 0.000000 -1.000000 -0.000000
vn 0.000000 -1.000000 0.000000
vn 0.000000 -1.000000 0.000000
vn 0.000000 -1.000000 0.000000
vn 0.000000 -1.000000 0.000000
vn 0.000000 -1.000000 0.000000
vn 0.000000 -1.000000 -0.000000
vn 0.000000 -1.000000 -0.000000
vn 0.000000 -1.000000 0.000000
vn 0.000000 -1.000000 0.000000
vn 0.000000 -1.000000 0.000000
vn 0.000000 -1.000000 0.000000
vn 0.000000 -1.000000 -0.000000
vn 0.000000 -1.000000 -0.000000
vn 0.000000 -1.000000 -0.000000
vn 0.000000 -1.000000 -0.000000
vn 0.000000 -1.000000 -0.000000
vn 0.000000 1.000000 -0.000000
vn 0.000000 1.000000 0.000000
vn 0.000000 1.000000 0.000000
vn 0.000000 1.000000 0.000000
vn 0.000000 1.000000 -0.000000
vn 0.000000 1.000000 0.000000
vn 0.000000 1.000000 0.000000
vn 0.000000 1.000000 0.000000
vn 0.000000 1.000000 0.000000
vn 0.000000 1.000000 0.000000
vn 0.000000 1.000000 -0.000000
vn 0.000000 1.000000 -0.000000
vn 0.000000 1.000000 0.000000
vn 0.000000 1.000000 0.000000
vn 0.000000 1.000000 0.000000
vn 0.000000 1.000000 0.000000
vn 0.000000 1.000000 -0.000000
vn 0.000000 1.000000 0.000000
vn 0.000000 1.000000 0.000000
vn 0.000000 1.000000 0.000000
vn 0.000000 1.000000 -0.000000
s 1
g pCylinder1
usemtl lambert3SG
f 54/112/114 55/113/115 75/134/116 74/133/117
f 55/113/115 56/114/118 76/135/119 75/134/116
f 56/114/118 57/115/120 77/136/121 76/135/119
f 57/115/120 58/116/122 78/137/123 77/136/121
f 58/116/122 59/117/124 79/138/125 78/137/123
f 59/117/124 60/118/126 80/139/127 79/138/125
f 60/118/126 61/119/128 81/140/129 80/139/127
f 61/119/128 62/120/130 82/141/131 81/140/129
f 62/120/130 63/121/132 83/142/133 82/141/131
f 63/121/132 64/122/134 84/143/135 83/142/133
f 64/122/134 65/123/136 85/144/137 84/143/135
f 65/123/136 66/124/138 86/145/139 85/144/137
f 66/124/138 67/125/140 87/146/141 86/145/139
f 67/125/140 68/126/142 88/147/143 87/146/141
f 68/126/142 69/127/144 89/148/145 88/147/143
f 69/127/144 70/128/146 90/149/147 89/148/145
f 70/128/146 71/129/148 91/150/149 90/149/147
f 71/129/148 72/130/150 92/151/151 91/150/149
f 72/130/150 73/131/152 93/152/153 92/151/151
f 73/131/152 54/132/114 74/153/117 93/152/153
s 2
f 55/93/154 54/92/155 94/174/156
f 56/94/157 55/93/154 94/174/156
f 57/95/158 56/94/157 94/174/156
f 58/96/159 57/95/158 94/174/156
f 59/97/160 58/96/159 94/174/156
f 60/98/161 59/97/160 94/174/156
f 61/99/162 60/98/161 94/174/156
f 62/100/163 61/99/162 94/174/156
f 63/101/164 62/100/163 94/174/156
f 64/102/165 63/101/164 94/174/156
f 65/103/166 64/102/165 94/174/156
f 66/104/167 65/103/166 94/174/156
f 67/105/168 66/104/167 94/174/156
f 68/106/169 67/105/168 94/174/156
f 69/107/170 68/106/169 94/174/156
f 70/108/171 69/107/170 94/174/156
f 71/109/172 70/108/171 94/174/156
f 72/110/173 71/109/172 94/174/156
f 73/111/174 72/110/173 94/174/156
f 54/92/155 73/111/174 94/174/156
s 3
f 74/154/175 75/155/176 95/156/177
f 75/155/176 76/157/178 95/156/177
f 76/157/178 77/158/179 95/156/177
f 77/158/179 78/159/180 95/156/177
f 78/159/180 79/160/181 95/156/177
f 79/160/181 80/161/182 95/156/177
f 80/161/182 81/162/183 95/156/177
f 81/162/183 82/163/184 95/156/177
f 82/163/184 83/164/185 95/156/177
f 83/164/185 84/165/186 95/156/177
f 84/165/186 85/166/187 95/156/177
f 85/166/187 86/167/188 95/156/177
f 86/167/188 87/168/189 95/156/177
f 87/168/189 88/169/190 95/156/177
f 88/169/190 89/170/191 95/156/177
f 89/170/191 90/171/192 95/156/177
f 90/171/192 91/172/193 95/156/177
f 91/172/193 92/173/194 95/156/177
f 92/173/194 93/175/195 95/156/177
f 93/175/195 74/154/175 95/156/177
g default
v 0.869393 -0.001737 8.884203
v -0.961105 -0.001737 8.884203
v 0.869393 0.024507 8.884203
v -0.961105 0.024507 8.884203
v 0.869393 0.024507 10.679235
v -0.961105 0.024507 10.679235
v 0.869393 -0.001737 10.679235
v -0.961105 -0.001737 10.679235
v -0.000977 0.024507 9.034993
vt 0.375000 0.000000
vt 0.625000 0.000000
vt 0.375000 0.250000
vt 0.625000 0.250000
vt 0.375000 0.500000
vt 0.625000 0.500000
vt 0.375000 0.750000
vt 0.625000 0.750000
vt 0.375000 1.000000
vt 0.625000 1.000000
vt 0.875000 0.000000
vt 0.875000 0.250000
vt 0.125000 0.000000
vt 0.125000 0.250000
vt 0.493871 0.271001
vn 0.000000 1.000000 -0.000000
vn 0.000000 1.000000 -0.000000
vn 0.000000 1.000000 -0.000000
vn 0.000000 1.000000 -0.000000
vn 0.000000 1.000000 -0.000000
vn -0.000000 0.000000 1.000000
vn -0.000000 0.000000 1.000000
vn -0.000000 0.000000 1.000000
vn -0.000000 0.000000 1.000000
vn 0.000000 -1.000000 0.000000
vn 0.000000 -1.000000 0.000000
vn 0.000000 -1.000000 0.000000
vn 0.000000 -1.000000 0.000000
vn -1.000000 0.000000 -0.000000
vn -1.000000 0.000000 -0.000000
vn -1.000000 0.000000 -0.000000
vn -1.000000 0.000000 -0.000000
vn 1.000000 0.000000 0.000000
vn 1.000000 0.000000 0.000000
vn 1.000000 0.000000 0.000000
vn 1.000000 0.000000 0.000000
s off
g pasted__pasted__pCube1 pasted__group group8
usemtl pasted__pasted__lambert4SG
f 98/178/196 104/190/197 99/179/198 101/181/199 100/180/200
f 100/180/201 101/181/202 103/183/203 102/182/204
f 102/182/205 103/183/206 97/185/207 96/184/208
f 97/177/209 103/186/210 101/187/211 99/179/212
f 102/188/213 96/176/214 98/178/215 100/189/216
