# This file uses centimeters as units for non-parametric coordinates.

mtllib letrero.mtl
g default
v -2.873807 2.985864 0.091683
v 2.873807 2.985864 0.091683
v -2.873807 4.029533 0.091683
v 2.873807 4.029533 0.091683
v -2.873807 4.029533 -0.091683
v 2.873807 4.029533 -0.091683
v -2.873807 2.985864 -0.091683
v 2.873807 2.985864 -0.091683
v 1.753160 2.985864 0.091683
v 1.753160 4.029533 0.091683
v 1.753160 4.029533 -0.091683
v 1.753160 2.985864 -0.091683
v 2.188140 2.985864 0.091683
v 2.188140 4.029533 0.091683
v 2.188140 4.029533 -0.091683
v 2.188140 2.985864 -0.091683
v -1.825410 2.985864 0.091683
v -1.825410 4.029533 0.091683
v -1.825410 4.029533 -0.091683
v -1.825410 2.985864 -0.091683
v -2.178269 2.985864 0.091683
v -2.178269 4.029533 0.091683
v -2.178269 4.029533 -0.091683
v -2.178269 2.985864 -0.091683
v 1.753160 2.985864 -0.091683
v 1.753160 2.985864 0.091683
v 2.188140 2.985864 -0.091683
v 2.188140 2.985864 0.091683
v -2.178269 2.985864 -0.091683
v -2.178269 2.985864 0.091683
v -1.825410 2.985864 -0.091683
v -1.825410 2.985864 0.091683
v 1.753160 0.009643 -0.091683
v 1.753160 0.009643 0.091683
v 2.188140 0.009643 -0.091683
v 2.188140 0.009643 0.091683
v -2.178269 0.009643 -0.091683
v -2.178269 0.009643 0.091683
v -1.825410 0.009643 -0.091683
v -1.825410 0.009643 0.091683
v 2.880711 2.988505 -0.091933
v 2.880711 2.988505 0.091933
v 2.880711 4.035026 -0.091933
v 2.880711 4.035026 0.091933
v 1.757001 4.035026 0.091933
v 1.757001 4.035026 -0.091933
v 2.193169 4.035026 0.091933
v 2.193169 4.035026 -0.091933
v -1.831349 4.035026 0.091933
v -1.831349 4.035026 -0.091933
v 1.757001 2.988504 -0.091933
v 1.757001 2.988504 0.091933
v 1.757001 0.004151 -0.091933
v 1.757001 0.004151 0.091933
v 2.193169 2.988504 -0.091933
v 2.193169 0.004151 -0.091933
v 2.193169 2.988504 0.091933
v 2.193169 0.004151 0.091933
v -2.185173 2.988505 -0.091933
v -2.185173 2.988505 0.091933
v -2.185173 0.004151 -0.091933
v -2.185173 0.004151 0.091933
v -1.831349 2.988505 -0.091933
v -1.831349 0.004151 -0.091933
v -1.831349 2.988505 0.091933
v -1.831349 0.004151 0.091933
vt 0.375000 0.000000
vt 0.625000 0.000000
vt 0.375000 0.250000
vt 0.625000 0.250000
vt 0.375000 0.500000
vt 0.625000 0.500000
vt 0.375000 0.750000
vt 0.625000 0.750000
vt 0.375000 1.000000
vt 0.625000 1.000000
vt 0.875000 0.000000
vt 0.875000 0.250000
vt 0.125000 0.000000
vt 0.125000 0.250000
vt -0.139905 -0.008479
vt 0.576256 1.000000
vt 0.576256 0.250000
vt 0.576256 0.500000
vt 0.576256 0.750000
vt 0.014969 -0.008479
vt 0.595176 1.000000
vt 0.595176 0.250000
vt 0.595176 0.500000
vt 0.595176 0.750000
vt 0.014969 1.008479
vt 0.420601 1.000000
vt 0.420601 0.250000
vt 0.420601 0.500000
vt 0.420601 0.750000
vt -0.139905 1.008479
vt 0.405253 1.000000
vt 0.405253 0.250000
vt 0.405253 0.500000
vt 0.405253 0.750000
vt 0.576256 1.000000
vt 0.576256 0.750000
vt 0.595176 0.750000
vt 0.595176 1.000000
vt 0.405253 1.000000
vt 0.405253 0.750000
vt 0.420601 0.750000
vt 0.420601 1.000000
vt 0.576256 1.000000
vt 0.576256 0.750000
vt 0.595176 0.750000
vt 0.595176 1.000000
vt 0.405253 1.000000
vt 0.405253 0.750000
vt 0.420601 0.750000
vt 0.420601 1.000000
vt 0.500000 0.672147
vt 0.500000 0.672147
vt 0.500000 0.327853
vt 0.500000 0.327853
vt 0.890373 1.008479
vt 0.890373 -0.008479
vt 0.987229 -0.008479
vt 0.987229 1.008479
vt 0.500000 0.327853
vt 0.500000 0.672147
vt 0.500000 0.672147
vt 0.500000 0.327853
vt 1.139905 -0.008479
vt 1.139905 1.008479
vt 0.500000 0.672147
vt 0.500000 0.327853
vt 0.093540 1.008479
vt 0.093540 -0.008479
vt 0.500000 0.327853
vt 0.500000 0.672147
vt 0.625000 0.000000
vt 0.875000 0.000000
vt 0.875000 0.250000
vt 0.625000 0.250000
vt 0.576256 0.250000
vt 0.595176 0.250000
vt 0.595176 0.500000
vt 0.576256 0.500000
vt 0.420601 0.500000
vt 0.420601 0.250000
vt 0.576256 1.000000
vt 0.576256 0.750000
vt 0.576256 0.750000
vt 0.576256 1.000000
vt 0.595176 0.750000
vt 0.595176 0.750000
vt 0.595176 1.000000
vt 0.595176 1.000000
vt 0.405253 1.000000
vt 0.405253 0.750000
vt 0.405253 0.750000
vt 0.405253 1.000000
vt 0.420601 0.750000
vt 0.420601 0.750000
vt 0.420601 1.000000
vt 0.420601 1.000000
vn 0.000000 0.000000 1.000000
vn 0.000000 0.000000 1.000000
vn 0.000000 0.000000 1.000000
vn 0.000000 0.000000 1.000000
vn 0.000000 1.000000 0.000000
vn 0.000000 1.000000 0.000000
vn 0.000000 1.000000 0.000000
vn 0.000000 1.000000 0.000000
vn 0.000000 0.000000 -1.000000
vn 0.000000 0.000000 -1.000000
vn 0.000000 0.000000 -1.000000
vn 0.000000 0.000000 -1.000000
vn 0.000000 -1.000000 0.000000
vn 0.000000 -1.000000 0.000000
vn 0.000000 -1.000000 0.000000
vn 0.000000 -1.000000 0.000000
vn 1.000000 0.000000 0.000000
vn 1.000000 0.000000 0.000000
vn 1.000000 0.000000 0.000000
vn 1.000000 0.000000 0.000000
vn -1.000000 0.000000 0.000000
vn -1.000000 0.000000 0.000000
vn -1.000000 0.000000 0.000000
vn -1.000000 0.000000 0.000000
vn 0.000000 0.000000 1.000000
vn 0.000000 0.000000 1.000000
vn 0.000000 0.000000 1.000000
vn 0.000000 0.000000 1.000000
vn 0.000000 1.000000 0.000000
vn 0.000000 1.000000 0.000000
vn 0.000000 1.000000 0.000000
vn 0.000000 1.000000 0.000000
vn 0.000000 0.000000 -1.000000
vn 0.000000 0.000000 -1.000000
vn 0.000000 0.000000 -1.000000
vn 0.000000 0.000000 -1.000000
vn 0.000000 -1.000000 0.000000
vn 0.000000 -1.000000 0.000000
vn 0.000000 -1.000000 0.000000
vn 0.000000 -1.000000 0.000000
vn 0.000000 0.000000 1.000000
vn 0.000000 0.000000 1.000000
vn 0.000000 1.000000 0.000000
vn 0.000000 1.000000 0.000000
vn 0.000000 1.000000 0.000000
vn 0.000000 1.000000 0.000000
vn 0.000000 0.000000 -1.000000
vn 0.000000 0.000000 -1.000000
vn 0.000000 -1.000000 0.000000
vn 0.000000 -1.000000 0.000000
vn 0.000000 -1.000000 0.000000
vn 0.000000 -1.000000 0.000000
vn 0.000000 0.000000 1.000000
vn 0.000000 0.000000 1.000000
vn 0.000000 1.000000 0.000000
vn 0.000000 1.000000 0.000000
vn 0.000000 0.000000 -1.000000
vn 0.000000 0.000000 -1.000000
vn 0.000000 -1.000000 0.000000
vn 0.000000 -1.000000 0.000000
vn 0.000000 -1.000000 0.000000
vn 0.000000 -1.000000 0.000000
vn 0.000000 1.000000 0.000000
vn 0.000000 1.000000 0.000000
vn 0.000000 -1.000000 0.000000
vn 0.000000 -1.000000 0.000000
vn 0.000000 -1.000000 0.000000
vn 0.000000 -1.000000 0.000000
vn -1.000000 0.000000 0.000000
vn -1.000000 0.000000 0.000000
vn -1.000000 0.000000 0.000000
vn -1.000000 0.000000 0.000000
vn 0.000000 0.000000 -1.000000
vn 0.000000 0.000000 -1.000000
vn 1.000000 0.000000 0.000000
vn 1.000000 0.000000 0.000000
vn 1.000000 0.000000 0.000000
vn 1.000000 0.000000 0.000000
vn 0.000000 0.000000 1.000000
vn 0.000000 0.000000 1.000000
vn 0.000000 0.000000 0.000000
vn 0.000000 0.000000 0.000000
vn 0.000000 0.000000 0.000000
vn 0.000000 0.000000 0.000000
vn 0.000000 0.000000 0.000000
vn 0.000000 0.000000 0.000000
vn 0.000000 0.000000 0.000000
vn 0.000000 0.000000 0.000000
vn 0.000000 0.000000 0.000000
vn 0.000000 0.000000 0.000000
vn 0.000000 0.000000 0.000000
vn 0.000000 0.000000 0.000000
vn 0.000000 0.000000 0.000000
vn 0.000000 0.000000 0.000000
vn 0.000000 0.000000 0.000000
vn 0.000000 0.000000 0.000000
vn -1.000000 0.000000 0.000000
vn -1.000000 0.000000 0.000000
vn -1.000000 0.000000 0.000000
vn -1.000000 0.000000 0.000000
vn 0.000000 0.000000 -1.000000
vn 0.000000 0.000000 -1.000000
vn 0.000000 0.000000 -1.000000
vn 0.000000 0.000000 -1.000000
vn 1.000000 0.000000 0.000000
vn 1.000000 0.000000 0.000000
vn 1.000000 0.000000 0.000000
vn 1.000000 0.000000 0.000000
vn 0.000000 0.000000 1.000000
vn 0.000000 0.000000 1.000000
vn 0.000000 0.000000 1.000000
vn 0.000000 0.000000 1.000000
vn -1.000000 0.000000 0.000000
vn -1.000000 0.000000 0.000000
vn -1.000000 0.000000 0.000000
vn -1.000000 0.000000 0.000000
vn 0.000000 0.000000 -1.000000
vn 0.000000 0.000000 -1.000000
vn 0.000000 0.000000 -1.000000
vn 0.000000 0.000000 -1.000000
vn 1.000000 0.000000 0.000000
vn 1.000000 0.000000 0.000000
vn 1.000000 0.000000 0.000000
vn 1.000000 0.000000 0.000000
vn 0.000000 0.000000 1.000000
vn 0.000000 0.000000 1.000000
vn 0.000000 0.000000 1.000000
vn 0.000000 0.000000 1.000000
vn 0.357277 -0.933999 0.000000
vn 0.357277 -0.933999 0.000000
vn 0.357277 -0.933998 0.000000
vn 0.357277 -0.933998 0.000000
vn -0.036272 0.000000 -0.999342
vn -0.036272 0.000000 -0.999342
vn -0.036272 0.000000 -0.999342
vn -0.036272 0.000000 -0.999342
vn -0.622638 0.782510 0.000000
vn -0.622638 0.782510 0.000000
vn -0.622638 0.782510 0.000000
vn -0.622638 0.782510 0.000000
vn -0.036271 0.000000 0.999342
vn -0.036271 0.000000 0.999342
vn -0.036271 0.000000 0.999342
vn -0.036271 0.000000 0.999342
vn 0.000000 -0.045567 0.998961
vn 0.000000 -0.045567 0.998961
vn 0.000000 -0.045567 0.998961
vn 0.000000 -0.045567 0.998961
vn 0.737536 -0.675308 0.000000
vn 0.737536 -0.675308 0.000000
vn 0.737536 -0.675308 0.000000
vn 0.737536 -0.675308 0.000000
vn 0.000000 -0.045567 -0.998961
vn 0.000000 -0.045567 -0.998961
vn 0.000000 -0.045567 -0.998961
vn 0.000000 -0.045567 -0.998961
vn -0.678998 -0.734140 0.000000
vn -0.678998 -0.734140 0.000000
vn -0.678998 -0.734140 0.000000
vn -0.678998 -0.734140 0.000000
vn 0.000000 -0.045567 0.998961
vn 0.000000 -0.045567 0.998961
vn 0.000000 -0.045567 0.998961
vn 0.000000 -0.045567 0.998961
vn 0.000000 -0.045567 -0.998961
vn 0.000000 -0.045567 -0.998961
vn 0.000000 -0.045567 -0.998961
vn 0.000000 -0.045567 -0.998961
vn 0.566563 -0.824018 0.000000
vn 0.566563 -0.824018 0.000000
vn 0.566563 -0.824018 0.000000
vn 0.566563 -0.824018 0.000000
vn 0.819536 0.573027 0.000000
vn 0.819536 0.573027 0.000000
vn 0.819536 0.573027 0.000000
vn 0.819536 0.573027 0.000000
vn 0.000000 0.094459 0.995529
vn 0.000000 0.094459 0.995529
vn 0.000000 0.094459 0.995529
vn 0.000000 0.094459 0.995529
vn 0.000000 -0.045568 0.998961
vn 0.000000 -0.045568 0.998961
vn 0.000000 -0.045568 0.998961
vn 0.000000 -0.045568 0.998961
vn -0.464864 0.885382 0.000000
vn -0.464864 0.885382 0.000000
vn -0.464864 0.885382 0.000000
vn -0.464864 0.885382 0.000000
vn -0.737533 -0.675312 0.000000
vn -0.737533 -0.675312 0.000000
vn -0.737533 -0.675312 0.000000
vn -0.737533 -0.675312 0.000000
vn 0.000000 0.094459 -0.995529
vn 0.000000 0.094459 -0.995529
vn 0.000000 0.094459 -0.995529
vn 0.000000 0.094459 -0.995529
vn 0.000000 -0.045568 -0.998961
vn 0.000000 -0.045568 -0.998961
vn 0.000000 -0.045568 -0.998961
vn 0.000000 -0.045568 -0.998961
vn 0.357274 0.934000 0.000000
vn 0.357274 0.934000 0.000000
vn 0.357274 0.934000 0.000000
vn 0.357274 0.934000 0.000000
vn 0.622630 -0.782516 0.000000
vn 0.622630 -0.782516 0.000000
vn 0.622630 -0.782516 0.000000
vn 0.622630 -0.782516 0.000000
vn 0.000000 0.094459 0.995529
vn 0.000000 0.094459 0.995529
vn 0.000000 0.094459 0.995529
vn 0.000000 0.094459 0.995529
vn 0.000000 -0.045566 0.998961
vn 0.000000 -0.045566 0.998961
vn 0.000000 -0.045566 0.998961
vn 0.000000 -0.045566 0.998961
vn -0.406284 -0.913747 0.000000
vn -0.406284 -0.913747 0.000000
vn -0.406284 -0.913747 0.000000
vn -0.406284 -0.913747 0.000000
vn -0.678994 0.734144 0.000000
vn -0.678994 0.734144 0.000000
vn -0.678994 0.734144 0.000000
vn -0.678994 0.734144 0.000000
vn 0.000000 0.094458 -0.995529
vn 0.000000 0.094458 -0.995529
vn 0.000000 0.094458 -0.995529
vn 0.000000 0.094458 -0.995529
vn 0.000000 -0.045567 -0.998961
vn 0.000000 -0.045567 -0.998961
vn 0.000000 -0.045567 -0.998961
vn 0.000000 -0.045567 -0.998961
s 1
g pCube1
usemtl lambert3SG
f 1/15/1 21/20/2 22/25/3 3/30/4
s 2
usemtl lambert4SG
f 3/3/5 22/32/6 23/33/7 5/5/8
s 3
usemtl lambert3SG
f 5/51/9 23/52/10 24/53/11 7/54/12
s off
usemtl lambert4SG
f 7/7/13 24/34/14 21/31/15 1/9/16
f 42/71/17 41/72/18 43/73/19 44/74/20
f 7/13/21 1/1/22 3/3/23 5/14/24
s 1
usemtl lambert3SG
f 10/55/25 9/56/26 13/57/27 14/58/28
s 5
usemtl lambert4SG
f 46/78/29 45/75/30 47/76/31 48/77/32
s 3
usemtl lambert3SG
f 12/59/33 11/60/34 15/61/35 16/62/36
s off
usemtl initialShadingGroup
f 34/43/37 33/44/38 35/45/39 36/46/40
s 1
usemtl lambert3SG
f 14/58/28 13/57/27 2/63/41 4/64/42
s off
usemtl lambert4SG
f 15/23/43 14/22/44 4/4/45 6/6/46
s 3
usemtl lambert3SG
f 16/62/36 15/61/35 6/65/47 8/66/48
s off
usemtl lambert4SG
f 13/21/49 16/24/50 8/8/51 2/10/52
s 1
usemtl lambert3SG
f 18/67/53 17/68/54 9/56/26 10/55/25
s 5
usemtl lambert4SG
f 50/79/55 49/80/56 45/75/30 46/78/29
s 3
usemtl lambert3SG
f 20/69/57 19/70/58 11/60/34 12/59/33
s off
usemtl lambert4SG
f 17/26/59 20/29/60 12/19/61 9/16/62
s 1
usemtl lambert3SG
f 22/25/3 21/20/2 17/68/54 18/67/53
s 2
usemtl lambert4SG
f 23/33/7 22/32/6 18/27/63 19/28/64
s 3
usemtl lambert3SG
f 24/53/11 23/52/10 19/70/58 20/69/57
s off
usemtl initialShadingGroup
f 38/47/65 37/48/66 39/49/67 40/50/68
f 9/16/69 12/19/70 25/36/71 26/35/72
s 3
f 12/19/33 16/24/36 27/37/73 25/36/74
s off
f 16/24/75 13/21/76 28/38/77 27/37/78
s 1
f 13/21/27 9/16/26 26/35/79 28/38/80
s off
f 21/31/81 24/34/82 29/40/83 30/39/84
f 24/34/85 20/29/86 31/41/87 29/40/88
f 20/29/89 17/26/90 32/42/91 31/41/92
f 17/26/93 21/31/94 30/39/95 32/42/96
usemtl lambert4SG
f 52/81/97 51/82/98 53/83/99 54/84/100
f 51/82/101 55/85/102 56/86/103 53/83/104
f 55/85/105 57/87/106 58/88/107 56/86/108
f 57/87/109 52/81/110 54/84/111 58/88/112
f 60/89/113 59/90/114 61/91/115 62/92/116
f 59/90/117 63/93/118 64/94/119 61/91/120
f 63/93/121 65/95/122 66/96/123 64/94/124
f 65/95/125 60/89/126 62/92/127 66/96/128
usemtl initialShadingGroup
f 2/2/129 8/11/130 41/72/131 42/71/132
f 8/11/133 6/12/134 43/73/135 41/72/136
f 6/12/137 4/4/138 44/74/139 43/73/140
f 4/4/141 2/2/142 42/71/143 44/74/144
f 10/17/145 14/22/146 47/76/147 45/75/148
f 14/22/149 15/23/150 48/77/151 47/76/152
f 15/23/153 11/18/154 46/78/155 48/77/156
f 19/28/157 18/27/158 49/80/159 50/79/160
f 18/27/161 10/17/162 45/75/163 49/80/164
f 11/18/165 19/28/166 50/79/167 46/78/168
f 26/35/169 25/36/170 51/82/171 52/81/172
f 33/44/173 34/43/174 54/84/175 53/83/176
f 25/36/177 27/37/178 55/85/179 51/82/180
f 35/45/181 33/44/182 53/83/183 56/86/184
f 27/37/185 28/38/186 57/87/187 55/85/188
f 36/46/189 35/45/190 56/86/191 58/88/192
f 28/38/193 26/35/194 52/81/195 57/87/196
f 34/43/197 36/46/198 58/88/199 54/84/200
f 30/39/201 29/40/202 59/90/203 60/89/204
f 37/48/205 38/47/206 62/92/207 61/91/208
f 29/40/209 31/41/210 63/93/211 59/90/212
f 39/49/213 37/48/214 61/91/215 64/94/216
f 31/41/217 32/42/218 65/95/219 63/93/220
f 40/50/221 39/49/222 64/94/223 66/96/224
f 32/42/225 30/39/226 60/89/227 65/95/228
f 38/47/229 40/50/230 66/96/231 62/92/232
