# This file uses centimeters as units for non-parametric coordinates.

mtllib refriCristal.mtl
g default
v 0.345583 1.024695 0.998552
v 0.429286 1.057287 0.998552
v -0.017262 1.956544 0.998552
v 0.066441 1.989137 0.998552
v -0.017262 1.956544 -0.001448
v 0.066441 1.989137 -0.001448
v 0.345583 1.024695 -0.001448
v 0.429286 1.057287 -0.001448
vt 0.375000 0.000000
vt 0.625000 0.000000
vt 0.375000 0.250000
vt 0.625000 0.250000
vt 0.375000 0.500000
vt 0.625000 0.500000
vt 0.375000 0.750000
vt 0.625000 0.750000
vt 0.375000 1.000000
vt 0.625000 1.000000
vt 0.875000 0.000000
vt 0.875000 0.250000
vt 0.125000 0.000000
vt 0.125000 0.250000
vn 0.000000 0.000000 1.000000
vn 0.000000 0.000000 1.000000
vn 0.000000 0.000000 1.000000
vn 0.000000 0.000000 1.000000
vn -0.362845 0.931849 0.000000
vn -0.362845 0.931849 0.000000
vn -0.362845 0.931849 0.000000
vn -0.362845 0.931849 0.000000
vn 0.000000 0.000000 -1.000000
vn 0.000000 0.000000 -1.000000
vn 0.000000 0.000000 -1.000000
vn 0.000000 0.000000 -1.000000
vn 0.362845 -0.931849 0.000000
vn 0.362845 -0.931849 0.000000
vn 0.362845 -0.931849 0.000000
vn 0.362845 -0.931849 0.000000
vn 0.931849 0.362845 0.000000
vn 0.931849 0.362845 0.000000
vn 0.931849 0.362845 0.000000
vn 0.931849 0.362845 0.000000
vn -0.931849 -0.362845 0.000000
vn -0.931849 -0.362845 0.000000
vn -0.931849 -0.362845 0.000000
vn -0.931849 -0.362845 0.000000
s off
g pCube3
usemtl lambert5SG
f 1/1/1 2/2/2 4/4/3 3/3/4
f 3/3/5 4/4/6 6/6/7 5/5/8
f 5/5/9 6/6/10 8/8/11 7/7/12
f 7/7/13 8/8/14 2/10/15 1/9/16
f 2/2/17 8/11/18 6/12/19 4/4/20
f 7/13/21 1/1/22 3/3/23 5/14/24
g default
v 0.402081 1.070295 0.014484
v 0.406134 1.071721 0.014484
v 0.055926 1.986979 0.014484
v 0.059979 1.988406 0.014484
v 0.055926 1.986979 -0.014484
v 0.059979 1.988406 -0.014484
v 0.402081 1.070295 -0.014484
v 0.406134 1.071721 -0.014484
v -0.374585 1.048076 0.014623
v 0.422265 1.048076 0.014623
v -0.374585 1.982493 0.014623
v -0.374585 1.982493 -0.014623
v -0.374585 1.048076 -0.014623
v 0.422265 1.048076 -0.014623
v 0.062565 1.982493 -0.014623
v 0.040284 1.982493 0.014623
v 0.407784 1.110623 0.014623
v 0.406931 1.085683 0.014623
v 0.406956 1.086402 -0.014623
v 0.056178 1.982493 0.014623
vt 0.375000 0.000000
vt 0.625000 0.000000
vt 0.375000 0.250000
vt 0.625000 0.250000
vt 0.375000 0.500000
vt 0.625000 0.500000
vt 0.375000 0.750000
vt 0.625000 0.750000
vt 0.375000 1.000000
vt 0.625000 1.000000
vt 0.875000 0.000000
vt 0.875000 0.250000
vt 0.125000 0.000000
vt 0.125000 0.250000
vt 0.375000 0.000000
vt 0.625000 0.000000
vt 0.625000 0.010000
vt 0.625000 0.016676
vt 0.505159 0.250000
vt 0.375000 0.250000
vt 0.375000 0.750000
vt 0.625000 0.750000
vt 0.625000 1.000000
vt 0.375000 1.000000
vt 0.125000 0.000000
vt 0.125000 0.250000
vt 0.875000 0.000000
vt 0.875000 0.010193
vt 0.375000 0.500000
vt 0.512150 0.500000
vt 0.625000 0.739807
vt 0.510146 0.250000
vn 0.000000 0.000000 1.000000
vn 0.000000 0.000000 1.000000
vn 0.000000 0.000000 1.000000
vn 0.000000 0.000000 1.000000
vn -0.331948 0.943298 0.000000
vn -0.331948 0.943298 0.000000
vn -0.331948 0.943298 0.000000
vn -0.331948 0.943298 0.000000
vn 0.000000 0.000000 -1.000000
vn 0.000000 0.000000 -1.000000
vn 0.000000 0.000000 -1.000000
vn 0.000000 0.000000 -1.000000
vn 0.331924 -0.943306 0.000000
vn 0.331924 -0.943306 0.000000
vn 0.331924 -0.943306 0.000000
vn 0.331924 -0.943306 0.000000
vn 0.935522 0.353269 0.000000
vn 0.935522 0.353269 0.000000
vn 0.935522 0.353269 0.000000
vn 0.935522 0.353269 0.000000
vn -0.935522 -0.353269 0.000000
vn -0.935522 -0.353269 0.000000
vn -0.935522 -0.353269 0.000000
vn -0.935522 -0.353269 0.000000
vn 0.000000 0.000000 1.000000
vn 0.000000 0.000000 1.000000
vn 0.000000 0.000000 1.000000
vn 0.000000 0.000000 1.000000
vn 0.000000 0.000000 1.000000
vn 0.000000 0.000000 1.000000
vn 0.000000 -1.000000 0.000000
vn 0.000000 -1.000000 0.000000
vn 0.000000 -1.000000 0.000000
vn 0.000000 -1.000000 0.000000
vn -1.000000 0.000000 0.000000
vn -1.000000 0.000000 0.000000
vn -1.000000 0.000000 0.000000
vn -1.000000 0.000000 0.000000
vn 0.927323 0.374228 0.004984
vn 0.927323 0.374228 0.004984
vn 0.927324 0.374228 0.004984
vn 0.927323 0.374228 0.004984
vn 0.000000 0.000000 -1.000000
vn 0.000000 0.000000 -1.000000
vn 0.000000 0.000000 -1.000000
vn 0.000000 0.000000 -1.000000
vn 0.000000 0.000000 -1.000000
vn 0.000000 1.000000 0.000000
vn 0.000000 1.000000 0.000000
vn 0.000000 1.000000 0.000000
vn 0.000000 1.000000 0.000000
vn 0.000000 1.000000 0.000000
s off
g pCube7
usemtl lambert5SG
f 9/15/25 10/16/26 12/18/27 11/17/28
f 11/17/29 12/18/30 14/20/31 13/19/32
f 13/19/33 14/20/34 16/22/35 15/21/36
f 15/21/37 16/22/38 10/24/39 9/23/40
f 10/16/41 16/25/42 14/26/43 12/18/44
f 15/27/45 9/15/46 11/17/47 13/28/48
f 17/29/49 18/30/50 26/31/51 25/32/52 24/33/53 19/34/54
f 21/35/55 22/36/56 18/37/57 17/38/58
f 21/39/59 17/29/60 19/34/61 20/40/62
f 18/30/63 22/41/64 27/42/65 26/31/66
f 20/43/67 23/44/68 27/45/69 22/36/70 21/35/71
f 19/34/72 24/33/73 28/46/74 23/44/75 20/43/76
g default
v 0.402081 1.070295 1.026072
v 0.406134 1.071721 1.026072
v 0.055926 1.986979 1.026072
v 0.059979 1.988406 1.026072
v 0.055926 1.986979 0.997103
v 0.059979 1.988406 0.997103
v 0.402081 1.070295 0.997103
v 0.406134 1.071721 0.997103
v -0.374585 1.048076 1.026210
v 0.422265 1.048076 1.026210
v -0.374585 1.982493 1.026210
v -0.374585 1.982493 0.996964
v -0.374585 1.048076 0.996964
v 0.422265 1.048076 0.996964
v 0.062565 1.982493 0.996964
v 0.040284 1.982493 1.026210
v 0.407784 1.110623 1.026210
v 0.406931 1.085683 1.026210
v 0.406956 1.086402 0.996964
v 0.056178 1.982493 1.026210
vt 0.375000 0.000000
vt 0.625000 0.000000
vt 0.375000 0.250000
vt 0.625000 0.250000
vt 0.375000 0.500000
vt 0.625000 0.500000
vt 0.375000 0.750000
vt 0.625000 0.750000
vt 0.375000 1.000000
vt 0.625000 1.000000
vt 0.875000 0.000000
vt 0.875000 0.250000
vt 0.125000 0.000000
vt 0.125000 0.250000
vt 0.375000 0.000000
vt 0.625000 0.000000
vt 0.625000 0.010000
vt 0.625000 0.016676
vt 0.505159 0.250000
vt 0.375000 0.250000
vt 0.375000 0.750000
vt 0.625000 0.750000
vt 0.625000 1.000000
vt 0.375000 1.000000
vt 0.125000 0.000000
vt 0.125000 0.250000
vt 0.875000 0.000000
vt 0.875000 0.010193
vt 0.375000 0.500000
vt 0.512150 0.500000
vt 0.625000 0.739807
vt 0.510146 0.250000
vn 0.000000 0.000000 1.000000
vn 0.000000 0.000000 1.000000
vn 0.000000 0.000000 1.000000
vn 0.000000 0.000000 1.000000
vn -0.331948 0.943298 0.000000
vn -0.331948 0.943298 0.000000
vn -0.331948 0.943298 0.000000
vn -0.331948 0.943298 0.000000
vn 0.000000 0.000000 -1.000000
vn 0.000000 0.000000 -1.000000
vn 0.000000 0.000000 -1.000000
vn 0.000000 0.000000 -1.000000
vn 0.331924 -0.943306 0.000000
vn 0.331924 -0.943306 0.000000
vn 0.331924 -0.943306 0.000000
vn 0.331924 -0.943306 0.000000
vn 0.935522 0.353269 0.000000
vn 0.935522 0.353269 0.000000
vn 0.935522 0.353269 0.000000
vn 0.935522 0.353269 0.000000
vn -0.935522 -0.353269 0.000000
vn -0.935522 -0.353269 0.000000
vn -0.935522 -0.353269 0.000000
vn -0.935522 -0.353269 0.000000
vn 0.000000 0.000000 1.000000
vn 0.000000 0.000000 1.000000
vn 0.000000 0.000000 1.000000
vn 0.000000 0.000000 1.000000
vn 0.000000 0.000000 1.000000
vn 0.000000 0.000000 1.000000
vn 0.000000 -1.000000 0.000000
vn 0.000000 -1.000000 0.000000
vn 0.000000 -1.000000 0.000000
vn 0.000000 -1.000000 0.000000
vn -1.000000 0.000000 0.000000
vn -1.000000 0.000000 0.000000
vn -1.000000 0.000000 0.000000
vn -1.000000 0.000000 0.000000
vn 0.927323 0.374228 0.004984
vn 0.927323 0.374228 0.004984
vn 0.927323 0.374228 0.004984
vn 0.927323 0.374228 0.004984
vn 0.000000 0.000000 -1.000000
vn 0.000000 0.000000 -1.000000
vn 0.000000 0.000000 -1.000000
vn 0.000000 0.000000 -1.000000
vn 0.000000 0.000000 -1.000000
vn 0.000000 1.000000 0.000000
vn 0.000000 1.000000 0.000000
vn 0.000000 1.000000 0.000000
vn 0.000000 1.000000 0.000000
vn 0.000000 1.000000 0.000000
s off
g pasted__pCube7 group
usemtl lambert5SG
f 29/47/77 30/48/78 32/50/79 31/49/80
f 31/49/81 32/50/82 34/52/83 33/51/84
f 33/51/85 34/52/86 36/54/87 35/53/88
f 35/53/89 36/54/90 30/56/91 29/55/92
f 30/48/93 36/57/94 34/58/95 32/50/96
f 35/59/97 29/47/98 31/49/99 33/60/100
f 37/61/101 38/62/102 46/63/103 45/64/104 44/65/105 39/66/106
f 41/67/107 42/68/108 38/69/109 37/70/110
f 41/71/111 37/61/112 39/66/113 40/72/114
f 38/62/115 42/73/116 47/74/117 46/63/118
f 40/75/119 43/76/120 47/77/121 42/68/122 41/67/123
f 39/66/124 44/65/125 48/78/126 43/76/127 40/75/128
g default
v -0.477641 1.899522 0.999793
v 0.058119 1.899522 0.999793
v -0.477641 1.992488 0.999793
v 0.058119 1.992488 0.999793
v -0.477641 1.992488 -0.000207
v 0.058119 1.992488 -0.000207
v -0.477641 1.899522 -0.000207
v 0.058119 1.899522 -0.000207
vt 0.375000 0.000000
vt 0.625000 0.000000
vt 0.375000 0.250000
vt 0.625000 0.250000
vt 0.375000 0.500000
vt 0.625000 0.500000
vt 0.375000 0.750000
vt 0.625000 0.750000
vt 0.375000 1.000000
vt 0.625000 1.000000
vt 0.875000 0.000000
vt 0.875000 0.250000
vt 0.125000 0.000000
vt 0.125000 0.250000
vn 0.000000 0.000000 1.000000
vn 0.000000 0.000000 1.000000
vn 0.000000 0.000000 1.000000
vn 0.000000 0.000000 1.000000
vn 0.000000 1.000000 0.000000
vn 0.000000 1.000000 0.000000
vn 0.000000 1.000000 0.000000
vn 0.000000 1.000000 0.000000
vn 0.000000 0.000000 -1.000000
vn 0.000000 0.000000 -1.000000
vn 0.000000 0.000000 -1.000000
vn 0.000000 0.000000 -1.000000
vn 0.000000 -1.000000 0.000000
vn 0.000000 -1.000000 0.000000
vn 0.000000 -1.000000 0.000000
vn 0.000000 -1.000000 0.000000
vn 1.000000 0.000000 0.000000
vn 1.000000 0.000000 0.000000
vn 1.000000 0.000000 0.000000
vn 1.000000 0.000000 0.000000
vn -1.000000 0.000000 0.000000
vn -1.000000 0.000000 0.000000
vn -1.000000 0.000000 0.000000
vn -1.000000 0.000000 0.000000
s off
g pCube4
usemtl lambert5SG
f 49/79/129 50/80/130 52/82/131 51/81/132
f 51/81/133 52/82/134 54/84/135 53/83/136
f 53/83/137 54/84/138 56/86/139 55/85/140
f 55/85/141 56/86/142 50/88/143 49/87/144
f 50/80/145 56/89/146 54/90/147 52/82/148
f 55/91/149 49/79/150 51/81/151 53/92/152
