# This file uses centimeters as units for non-parametric coordinates.

mtllib store2.mtl
g default
v -1.381110 0.016818 3.147073
v 1.381110 0.016818 3.147072
v -1.381110 3.146948 3.147073
v 1.381110 3.146948 3.147072
v -1.381110 3.146948 -3.147073
v 1.381110 3.146948 -3.147072
v -1.381110 0.016818 -3.147073
v 1.381110 0.016818 -3.147072
vt -0.016958 0.025437
vt 0.000000 0.000000
vt 0.000000 1.000000
vt -0.016958 0.974563
vt 1.000000 1.000000
vt 1.016958 0.974563
vt 1.000000 0.000000
vt 1.016958 0.025437
vt 0.000000 0.000000
vt 1.000000 0.000000
vt 1.000000 1.000000
vt 0.000000 1.000000
vt 0.000000 1.000000
vt 1.000000 1.000000
vt 1.000000 0.000000
vt 0.000000 0.000000
vn 0.000000 0.000000 1.000000
vn 0.000000 0.000000 1.000000
vn 0.000000 0.000000 1.000000
vn 0.000000 0.000000 1.000000
vn 0.000000 1.000000 0.000000
vn 0.000000 1.000000 0.000000
vn 0.000000 1.000000 0.000000
vn 0.000000 1.000000 0.000000
vn 0.000000 0.000000 -1.000000
vn 0.000000 0.000000 -1.000000
vn 0.000000 0.000000 -1.000000
vn 0.000000 0.000000 -1.000000
vn 0.000000 -1.000000 0.000000
vn 0.000000 -1.000000 0.000000
vn 0.000000 -1.000000 0.000000
vn 0.000000 -1.000000 0.000000
vn 1.000000 0.000000 0.000000
vn 1.000000 0.000000 0.000000
vn 1.000000 0.000000 0.000000
vn 1.000000 0.000000 0.000000
vn -1.000000 0.000000 0.000000
vn -1.000000 0.000000 0.000000
vn -1.000000 0.000000 0.000000
vn -1.000000 0.000000 0.000000
s off
g pCube1
usemtl lambert9SG
f 1/9/1 2/10/2 4/11/3 3/12/4
f 3/4/5 4/3/6 6/5/7 5/6/8
f 5/13/9 6/14/10 8/15/11 7/16/12
usemtl lambert6SG
f 7/8/13 8/7/14 2/2/15 1/1/16
usemtl lambert9SG
f 2/2/17 8/7/18 6/5/19 4/3/20
usemtl lambert8SG
f 7/8/21 1/1/22 3/4/23 5/6/24
