# This file uses centimeters as units for non-parametric coordinates.

mtllib body.mtl
g default
v -0.195162 0.009426 0.254584
v -0.097591 0.009426 0.378678
v -0.134930 0.009426 0.369232
v -0.166584 0.009426 0.342332
v -0.187735 0.009426 0.302073
v -0.195162 0.154647 0.254584
v -0.187735 0.154647 0.302073
v -0.166584 0.154647 0.342332
v -0.134930 0.154647 0.369232
v -0.097591 0.154647 0.378678
v 0.195162 0.009426 0.254584
v 0.187735 0.009426 0.302073
v 0.166584 0.009426 0.342332
v 0.134930 0.009426 0.369232
v 0.097591 0.009426 0.378678
v 0.195162 0.154647 0.254584
v 0.097591 0.154647 0.378678
v 0.134930 0.154647 0.369232
v 0.166584 0.154647 0.342332
v 0.187735 0.154647 0.302073
v -0.134930 0.154647 -0.244166
v -0.166584 0.154647 -0.217266
v -0.187735 0.154647 -0.177007
v -0.195162 0.154647 -0.129517
v -0.097591 0.154647 -0.253612
v -0.195162 0.009426 -0.129517
v -0.187735 0.009426 -0.177007
v -0.166584 0.009426 -0.217266
v -0.134930 0.009426 -0.244166
v -0.097591 0.009426 -0.253612
v 0.187735 0.154647 -0.177007
v 0.166584 0.154647 -0.217266
v 0.134930 0.154647 -0.244166
v 0.097591 0.154647 -0.253612
v 0.195162 0.154647 -0.129517
v 0.195162 0.009426 -0.129517
v 0.097591 0.009426 -0.253612
v 0.134930 0.009426 -0.244166
v 0.166584 0.009426 -0.217266
v 0.187735 0.009426 -0.177007
vt 0.437494 0.000000
vt 0.174066 0.000000
vt 0.325934 0.250000
vt 0.674066 0.000000
vt 0.825934 0.250000
vt 0.325934 0.000000
vt 0.437494 0.250000
vt 0.562506 0.000000
vt 0.674066 0.250000
vt 0.174066 0.250000
vt 0.437494 0.750000
vt 0.562506 0.500000
vt 0.825934 0.000000
vt 0.437494 0.500000
vt 0.544751 0.843584
vt 0.519893 0.902640
vt 0.562506 0.250000
vt 0.482691 0.942100
vt 0.438807 0.955956
vt 0.642003 0.335814
vt 0.642003 0.200612
vt 0.638098 0.183896
vt 0.626978 0.169725
vt 0.610336 0.160256
vt 0.590705 0.156931
vt 0.562506 0.750000
vt 0.488087 0.156931
vt 0.405378 0.000000
vt 0.468456 0.160256
vt 0.375000 0.000000
vt 0.451814 0.169725
vt 0.349534 0.000000
vt 0.349534 0.250000
vt 0.209414 0.955956
vt 0.375000 0.250000
vt 0.405378 0.250000
vt 0.440693 0.183896
vt 0.650466 0.000000
vt 0.436788 0.200612
vt 0.625000 0.000000
vt 0.436788 0.335814
vt 0.594622 0.000000
vt 0.594622 0.250000
vt 0.625000 0.250000
vt 0.650466 0.250000
vt 0.165530 0.942100
vt 0.405378 0.500000
vt 0.375000 0.500000
vt 0.125000 0.250000
vt 0.128327 0.902640
vt 0.150466 0.250000
vt 0.150466 0.000000
vt 0.440693 0.352530
vt 0.375000 0.750000
vt 0.125000 0.000000
vt 0.405378 0.750000
vt 0.103469 0.843584
vt 0.849534 0.250000
vt 0.625000 0.500000
vt 0.875000 0.250000
vt 0.594622 0.500000
vt 0.594622 0.750000
vt 0.875000 0.000000
vt 0.625000 0.750000
vt 0.849534 0.000000
vt 0.451814 0.366701
vt 0.094740 0.773923
vt 0.094740 0.210492
vt 0.103469 0.140831
vt 0.128327 0.081775
vt 0.165530 0.042315
vt 0.209414 0.028459
vt 0.438807 0.028459
vt 0.482691 0.042315
vt 0.519893 0.081775
vt 0.544751 0.140831
vt 0.553481 0.210492
vt 0.553481 0.773923
vt 0.468456 0.376170
vt 0.488087 0.379495
vt 0.590705 0.379495
vt 0.610336 0.376170
vt 0.626978 0.366701
vt 0.638098 0.352530
vn -0.040591 0.000000 0.999176
vn -0.040591 0.000000 0.999176
vn 0.040591 0.000000 0.999176
vn 0.040591 0.000000 0.999176
vn -0.040591 0.000000 -0.999176
vn -0.040591 0.000000 -0.999176
vn 0.040591 0.000000 -0.999176
vn 0.040591 0.000000 -0.999176
vn 0.999852 0.000000 0.017206
vn 0.999852 0.000000 0.017206
vn 0.999852 0.000000 -0.017206
vn 0.999852 0.000000 -0.017206
vn -0.999852 0.000000 -0.017206
vn -0.999852 0.000000 -0.017206
vn -0.999852 0.000000 0.017206
vn -0.999852 0.000000 0.017206
vn -0.950844 0.000000 0.309672
vn -0.950844 0.000000 0.309672
vn -0.786108 0.000000 0.618089
vn -0.786108 0.000000 0.618089
vn -0.466090 0.000000 0.884737
vn -0.466090 0.000000 0.884737
vn 0.466090 0.000000 0.884737
vn 0.466090 0.000000 0.884737
vn 0.786108 0.000000 0.618089
vn 0.786108 0.000000 0.618089
vn 0.950844 0.000000 0.309672
vn 0.950844 0.000000 0.309672
vn -0.950844 0.000000 -0.309671
vn -0.950844 0.000000 -0.309671
vn -0.786109 0.000000 -0.618088
vn -0.786109 0.000000 -0.618088
vn -0.466090 0.000000 -0.884737
vn -0.466090 0.000000 -0.884737
vn 0.466090 0.000000 -0.884737
vn 0.466090 0.000000 -0.884737
vn 0.786109 0.000000 -0.618088
vn 0.786109 0.000000 -0.618088
vn 0.950844 0.000000 -0.309671
vn 0.950844 0.000000 -0.309671
vn 0.000000 1.000000 0.000000
vn 0.000000 1.000000 0.000000
vn 0.000000 1.000000 0.000000
vn 0.000000 1.000000 0.000000
vn 0.000000 1.000000 0.000000
vn 0.000000 1.000000 0.000000
vn 0.000000 1.000000 0.000000
vn 0.000000 1.000000 0.000000
vn 0.000000 1.000000 0.000000
vn 0.000000 1.000000 0.000000
vn 0.000000 1.000000 0.000000
vn 0.000000 1.000000 0.000000
vn 0.000000 1.000000 0.000000
vn 0.000000 1.000000 0.000000
vn 0.000000 1.000000 0.000000
vn 0.000000 1.000000 0.000000
vn 0.000000 1.000000 0.000000
vn 0.000000 1.000000 0.000000
vn 0.000000 1.000000 0.000000
vn 0.000000 1.000000 0.000000
vn 0.000000 -1.000000 -0.000000
vn 0.000000 -1.000000 -0.000000
vn 0.000000 -1.000000 -0.000000
vn 0.000000 -1.000000 -0.000000
vn 0.000000 -1.000000 -0.000000
vn 0.000000 -1.000000 -0.000000
vn 0.000000 -1.000000 -0.000000
vn 0.000000 -1.000000 -0.000000
vn 0.000000 -1.000000 -0.000000
vn 0.000000 -1.000000 -0.000000
vn 0.000000 -1.000000 -0.000000
vn 0.000000 -1.000000 -0.000000
vn 0.000000 -1.000000 -0.000000
vn 0.000000 -1.000000 -0.000000
vn 0.000000 -1.000000 -0.000000
vn 0.000000 -1.000000 -0.000000
vn 0.000000 -1.000000 -0.000000
vn 0.000000 -1.000000 -0.000000
vn 0.000000 -1.000000 -0.000000
vn 0.000000 -1.000000 -0.000000
s 1
g pCube1
usemtl lambert2SG
f 10/7/1 2/1/2 15/8/3 17/17/4
f 30/11/5 25/14/6 34/12/7 37/26/8
f 16/9/9 11/4/10 36/13/11 35/5/12
f 24/10/13 26/2/14 1/6/15 6/3/16
f 1/6/15 5/32/17 7/33/18 6/3/16
f 5/32/17 4/30/19 8/35/20 7/33/18
f 4/30/19 3/28/21 9/36/22 8/35/20
f 3/28/21 2/1/2 10/7/1 9/36/22
f 15/8/3 14/42/23 18/43/24 17/17/4
f 14/42/23 13/40/25 19/44/26 18/43/24
f 13/40/25 12/38/27 20/45/28 19/44/26
f 12/38/27 11/4/10 16/9/9 20/45/28
f 24/10/13 23/51/29 27/52/30 26/2/14
f 23/51/29 22/49/31 28/55/32 27/52/30
f 22/48/31 21/47/33 29/56/34 28/54/32
f 21/47/33 25/14/6 30/11/5 29/56/34
f 34/12/7 33/61/35 38/62/36 37/26/8
f 33/61/35 32/59/37 39/64/38 38/62/36
f 32/60/37 31/58/39 40/65/40 39/63/38
f 31/58/39 35/5/12 36/13/11 40/65/40
s off
f 31/15/41 32/16/42 33/18/43 34/19/44 25/34/45 21/46/46 22/50/47 23/57/48 24/67/49 6/68/50 7/69/51 8/70/52 9/71/53 10/72/54 17/73/55 18/74/56 19/75/57 20/76/58 16/77/59 35/78/60
f 36/20/61 11/21/62 12/22/63 13/23/64 14/24/65 15/25/66 2/27/67 3/29/68 4/31/69 5/37/70 1/39/71 26/41/72 27/53/73 28/66/74 29/79/75 30/80/76 37/81/77 38/82/78 39/83/79 40/84/80
g default
v -0.129979 0.164629 -0.248359
v -0.146206 0.148401 -0.248359
v -0.152146 0.126234 -0.248359
v -0.107811 0.170569 -0.248359
v -0.152146 0.126234 -0.380716
v -0.146206 0.148401 -0.380716
v -0.129979 0.164629 -0.380716
v -0.107811 0.170569 -0.380716
v 0.146206 0.148401 -0.248359
v 0.129979 0.164629 -0.248359
v 0.107811 0.170569 -0.248359
v 0.152146 0.126234 -0.248359
v 0.152146 0.126234 -0.380716
v 0.107811 0.170569 -0.380716
v 0.129979 0.164629 -0.380716
v 0.146206 0.148401 -0.380716
v -0.146206 0.015379 -0.248359
v -0.129979 -0.000849 -0.248359
v -0.107811 -0.006789 -0.248359
v -0.152146 0.037546 -0.248359
v -0.129979 -0.000849 -0.380716
v -0.146206 0.015379 -0.380716
v -0.152146 0.037546 -0.380716
v -0.107811 -0.006789 -0.380716
v 0.129979 -0.000849 -0.248359
v 0.146206 0.015379 -0.248359
v 0.152146 0.037546 -0.248359
v 0.107811 -0.006789 -0.248359
v 0.146206 0.015379 -0.380716
v 0.129979 -0.000849 -0.380716
v 0.107811 -0.006789 -0.380716
v 0.152146 0.037546 -0.380716
vt 1.000000 1.000000
vt 0.000000 1.000000
vt 0.000000 1.000000
vt 0.375000 0.187506
vt 0.980480 0.124988
vt 0.588575 0.250000
vt 1.000000 1.000000
vt 0.000000 0.000000
vt 1.000000 0.000000
vt 0.625000 0.062494
vt 0.927151 0.033490
vt 0.625000 0.187506
vt 0.411425 0.250000
vt 0.375000 0.062494
vt 0.411425 0.000000
vt 0.588575 0.000000
vt 0.854302 0.000000
vt 0.145698 0.000000
vt 0.072849 0.033490
vt 0.019520 0.124988
vt 0.000000 0.249975
vt 0.000000 0.750025
vt 0.395730 0.250000
vt 0.375000 0.250000
vt 0.019520 0.875013
vt 1.000000 0.000000
vt 0.072849 0.966510
vt 0.625000 0.250000
vt 0.604270 0.250000
vt 0.145698 1.000000
vt 0.000000 0.000000
vt 0.854302 1.000000
vt 0.346926 0.055476
vt 0.000000 0.249975
vt -0.000000 -0.000000
vt 1.000000 0.249975
vt 0.927151 0.966510
vt 1.000000 0.750025
vt 0.980480 0.875013
vt -0.000000 -0.000000
vt 0.000000 0.750025
vt 0.653074 0.055476
vt 1.000000 0.249975
vt 1.000000 0.750025
vt 0.000000 0.249975
vt 1.000000 0.249975
vt 0.000000 0.750025
vt 1.000000 0.750025
vt 0.000000 0.875013
vt 1.000000 0.875013
vt 0.000000 0.966510
vt 1.000000 0.966510
vt 0.000000 0.966510
vt 1.000000 0.966510
vt 0.000000 0.875013
vt 1.000000 0.875013
vt 0.000000 0.033490
vt 1.000000 0.033490
vt 0.000000 0.124988
vt 1.000000 0.124988
vt 0.000000 0.124988
vt 1.000000 0.124988
vt 0.000000 0.033490
vt 1.000000 0.033490
vn -0.024971 0.999688 0.000000
vn -0.024971 0.999688 0.000000
vn 0.024971 0.999688 0.000000
vn 0.024971 0.999688 0.000000
vn -0.024971 -0.999688 0.000000
vn -0.024971 -0.999688 0.000000
vn 0.024971 -0.999688 0.000000
vn 0.024971 -0.999688 0.000000
vn 0.998568 -0.053505 0.000000
vn 0.998568 -0.053505 0.000000
vn 0.998568 0.053505 0.000000
vn 0.998568 0.053505 0.000000
vn -0.998568 -0.053505 0.000000
vn -0.998568 -0.053505 0.000000
vn -0.998568 0.053505 0.000000
vn -0.998568 0.053505 0.000000
vn -0.866026 0.500000 0.000000
vn -0.866026 0.500000 0.000000
vn -0.500000 0.866026 0.000000
vn -0.500000 0.866026 0.000000
vn 0.500000 0.866026 0.000000
vn 0.500000 0.866026 0.000000
vn 0.866026 0.500000 0.000000
vn 0.866026 0.500000 0.000000
vn -0.258818 -0.965926 0.000000
vn -0.258818 -0.965926 0.000000
vn -0.707108 -0.707106 0.000000
vn -0.866026 -0.500000 0.000000
vn -0.866026 -0.500000 0.000000
vn -0.707108 -0.707106 0.000000
vn 0.866026 -0.500000 0.000000
vn 0.866026 -0.500000 0.000000
vn 0.707108 -0.707106 0.000000
vn 0.707108 -0.707106 0.000000
vn 0.258818 -0.965926 0.000000
vn 0.258818 -0.965926 0.000000
vn 0.000000 0.000000 1.000000
vn 0.000000 0.000000 1.000000
vn 0.000000 0.000000 1.000000
vn 0.000000 0.000000 1.000000
vn 0.000000 0.000000 1.000000
vn 0.000000 0.000000 1.000000
vn 0.000000 0.000000 1.000000
vn 0.000000 0.000000 1.000000
vn 0.000000 0.000000 1.000000
vn 0.000000 0.000000 1.000000
vn 0.000000 0.000000 1.000000
vn 0.000000 0.000000 1.000000
vn 0.000000 0.000000 1.000000
vn 0.000000 0.000000 1.000000
vn 0.000000 0.000000 1.000000
vn 0.000000 0.000000 1.000000
vn -0.000000 0.000000 -1.000000
vn -0.000000 0.000000 -1.000000
vn -0.000000 0.000000 -1.000000
vn -0.000000 0.000000 -1.000000
vn -0.000000 0.000000 -1.000000
vn -0.000000 0.000000 -1.000000
vn -0.000000 0.000000 -1.000000
vn -0.000000 0.000000 -1.000000
vn -0.000000 0.000000 -1.000000
vn -0.000000 0.000000 -1.000000
vn -0.000000 0.000000 -1.000000
vn -0.000000 0.000000 -1.000000
vn -0.000000 0.000000 -1.000000
vn -0.000000 0.000000 -1.000000
vn -0.000000 0.000000 -1.000000
vn -0.000000 0.000000 -1.000000
s 1
g pCube2
usemtl lambert3SG
f 48/85/81 44/86/82 51/87/83 54/91/84
s 2
f 59/92/85 64/93/86 71/110/87 68/115/88
s 1
f 67/118/89 72/120/90 53/122/91 52/125/92
f 63/127/93 60/129/94 43/131/95 45/132/96
f 43/131/95 42/133/97 46/134/98 45/132/96
f 42/133/97 41/135/99 47/136/100 46/134/98
f 41/135/99 44/86/82 48/85/81 47/136/100
f 51/87/83 50/137/101 55/138/102 54/91/84
f 50/137/101 49/139/103 56/140/104 55/138/102
f 49/139/103 52/125/92 53/122/91 56/140/104
s 2
f 59/92/85 58/141/105 61/142/106 64/93/86
s 1
f 58/141/107 57/143/108 62/144/109 61/142/110
f 57/143/108 60/129/94 63/127/93 62/144/109
f 67/118/89 66/145/111 69/146/112 72/120/90
f 66/145/111 65/147/113 70/148/114 69/146/112
s 2
f 65/147/115 68/115/88 71/110/87 70/148/116
s off
f 65/124/117 66/126/118 67/94/119 52/96/120 49/112/121 50/113/122 51/90/123 44/97/124 41/107/125 42/108/126 43/88/127 60/98/128 57/117/129 58/119/130 59/99/131 68/100/132
usemtl lambert6SG
f 69/89/133 70/95/134 71/101/135 64/102/136 61/103/137 62/104/138 63/105/139 45/106/140 46/109/141 47/111/142 48/114/143 54/116/144 55/121/145 56/123/146 53/128/147 72/130/148
g default
v -0.020283 0.149684 0.025440
v 0.020283 0.149684 0.025440
v -0.020283 0.307258 0.025440
v 0.020283 0.307258 0.025440
v -0.020283 0.307258 -0.025440
v 0.020283 0.307258 -0.025440
v -0.020283 0.149684 -0.025440
v 0.020283 0.149684 -0.025440
vt 0.375000 0.000000
vt 0.625000 0.000000
vt 0.375000 0.250000
vt 0.625000 0.250000
vt 0.375000 0.500000
vt 0.625000 0.500000
vt 0.375000 0.750000
vt 0.625000 0.750000
vt 0.375000 1.000000
vt 0.625000 1.000000
vt 0.875000 0.000000
vt 0.875000 0.250000
vt 0.125000 0.000000
vt 0.125000 0.250000
vn 0.000000 0.000000 1.000000
vn 0.000000 0.000000 1.000000
vn 0.000000 0.000000 1.000000
vn 0.000000 0.000000 1.000000
vn 0.000000 1.000000 0.000000
vn 0.000000 1.000000 0.000000
vn 0.000000 1.000000 0.000000
vn 0.000000 1.000000 0.000000
vn 0.000000 0.000000 -1.000000
vn 0.000000 0.000000 -1.000000
vn 0.000000 0.000000 -1.000000
vn 0.000000 0.000000 -1.000000
vn 0.000000 -1.000000 0.000000
vn 0.000000 -1.000000 0.000000
vn 0.000000 -1.000000 0.000000
vn 0.000000 -1.000000 0.000000
vn 1.000000 0.000000 0.000000
vn 1.000000 0.000000 0.000000
vn 1.000000 0.000000 0.000000
vn 1.000000 0.000000 0.000000
vn -1.000000 0.000000 0.000000
vn -1.000000 0.000000 0.000000
vn -1.000000 0.000000 0.000000
vn -1.000000 0.000000 0.000000
s off
g pCube3
usemtl lambert8SG
f 73/149/149 74/150/150 76/152/151 75/151/152
f 75/151/153 76/152/154 78/154/155 77/153/156
f 77/153/157 78/154/158 80/156/159 79/155/160
f 79/155/161 80/156/162 74/158/163 73/157/164
f 74/150/165 80/159/166 78/160/167 76/152/168
f 79/161/169 73/149/170 75/151/171 77/162/172
