# This file uses centimeters as units for non-parametric coordinates.

mtllib caja.mtl
g default
v -0.125331 -0.042572 0.137238
v 0.125331 -0.042572 0.137238
v -0.125331 0.042572 0.137238
v 0.125331 0.042572 0.137238
v -0.125331 0.134436 -0.137238
v 0.125331 0.134436 -0.137238
v -0.125331 -0.042572 -0.137238
v 0.125331 -0.042572 -0.137238
v -0.011449 0.093234 -0.138562
v 0.011449 0.093234 -0.138562
v -0.011449 0.195911 -0.138562
v 0.011449 0.195911 -0.138562
v -0.011449 0.195911 -0.146096
v 0.011449 0.195911 -0.146096
v -0.011449 0.093234 -0.146096
v 0.011449 0.093234 -0.146096
v -0.048839 0.194361 -0.134334
v 0.046748 0.194361 -0.134334
v -0.048839 0.244331 -0.134334
v 0.046748 0.244331 -0.134334
v -0.048839 0.244331 -0.149102
v 0.046748 0.244331 -0.149102
v -0.048839 0.194361 -0.149102
v 0.046748 0.194361 -0.149102
vt 1.000000 0.000000
vt 0.000000 0.000000
vt 0.000000 0.000000
vt 1.000000 0.000000
vt -0.000000 1.000000
vt 1.000000 1.000000
vt 0.000001 1.000000
vt 0.999999 1.000000
vt 1.000000 -0.000000
vt 0.000000 -0.000000
vt 1.000000 1.000000
vt 0.000000 0.481021
vt 0.000000 0.481021
vt 1.000000 1.000000
vt 0.375000 0.000000
vt 0.625000 0.000000
vt 0.625000 0.250000
vt 0.375000 0.250000
vt 0.625000 0.500000
vt 0.375000 0.500000
vt 0.625000 0.750000
vt 0.375000 0.750000
vt 0.625000 1.000000
vt 0.375000 1.000000
vt 0.875000 0.000000
vt 0.875000 0.250000
vt 0.125000 0.000000
vt 0.125000 0.250000
vt 0.375000 0.000000
vt 0.625000 0.000000
vt 0.625000 0.250000
vt 0.375000 0.250000
vt 0.625000 0.500000
vt 0.375000 0.500000
vt 0.625000 0.750000
vt 0.375000 0.750000
vt 0.625000 1.000000
vt 0.375000 1.000000
vt 0.875000 0.000000
vt 0.875000 0.250000
vt 0.125000 0.000000
vt 0.125000 0.250000
vt 0.000000 0.000000
vt 1.000000 0.000000
vt 1.000000 1.000000
vt -0.000000 1.000000
vt 0.999999 0.000000
vt 0.000001 0.000000
vt 0.000000 -0.000000
vt 1.000000 -0.000000
vt 1.000000 1.000000
vt 0.000000 1.000000
vt 0.000000 1.000000
vt 1.000000 1.000000
vt 1.000000 -0.000000
vt 0.000000 -0.000000
vt 0.000000 -0.000000
vt 1.000000 -0.000000
vt 1.000000 1.000000
vt 0.000000 1.000000
vt 0.000000 1.000000
vt 1.000000 1.000000
vt 1.000000 -0.000000
vt 0.000000 -0.000000
vn 0.000000 0.948298 0.317383
vn 0.000000 0.948298 0.317383
vn 0.000000 0.948298 0.317383
vn 0.000000 0.948297 0.317383
vn 0.000000 -0.000000 -1.000000
vn 0.000000 -0.000000 -1.000000
vn 0.000000 -0.000000 -1.000000
vn 0.000000 -0.000000 -1.000000
vn 0.000000 -1.000000 0.000000
vn 0.000000 -1.000000 0.000000
vn 0.000000 -1.000000 0.000000
vn 0.000000 -1.000000 0.000000
vn 1.000000 -0.000001 -0.000001
vn 1.000000 -0.000001 -0.000000
vn 1.000000 -0.000001 -0.000000
vn 1.000000 -0.000001 -0.000000
vn -1.000000 -0.000001 -0.000001
vn -1.000000 -0.000001 -0.000000
vn -1.000000 -0.000001 -0.000000
vn -1.000000 -0.000001 -0.000000
vn 0.000000 0.000000 1.000000
vn 0.000000 0.000000 1.000000
vn 0.000000 0.000000 1.000000
vn 0.000000 0.000000 1.000000
vn 0.000000 1.000000 0.000000
vn 0.000000 1.000000 0.000000
vn 0.000000 1.000000 0.000000
vn 0.000000 1.000000 0.000000
vn 0.000000 0.000000 -1.000000
vn 0.000000 0.000000 -1.000000
vn 0.000000 0.000000 -1.000000
vn 0.000000 0.000000 -1.000000
vn 0.000000 -1.000000 0.000000
vn 0.000000 -1.000000 0.000000
vn 0.000000 -1.000000 0.000000
vn 0.000000 -1.000000 0.000000
vn 1.000000 0.000000 0.000000
vn 1.000000 0.000000 0.000000
vn 1.000000 0.000000 0.000000
vn 1.000000 0.000000 0.000000
vn -1.000000 0.000000 0.000000
vn -1.000000 0.000000 0.000000
vn -1.000000 0.000000 0.000000
vn -1.000000 0.000000 0.000000
vn 0.000000 0.000000 1.000000
vn 0.000000 0.000000 1.000000
vn 0.000000 0.000000 1.000000
vn 0.000000 0.000000 1.000000
vn 0.000000 1.000000 0.000000
vn 0.000000 1.000000 0.000000
vn 0.000000 1.000000 0.000000
vn 0.000000 1.000000 0.000000
vn 0.000000 0.000000 -1.000000
vn 0.000000 0.000000 -1.000000
vn 0.000000 0.000000 -1.000000
vn 0.000000 0.000000 -1.000000
vn 0.000000 -1.000000 0.000000
vn 0.000000 -1.000000 0.000000
vn 0.000000 -1.000000 0.000000
vn 0.000000 -1.000000 0.000000
vn 1.000000 0.000000 0.000000
vn 1.000000 0.000000 0.000000
vn 1.000000 0.000000 0.000000
vn 1.000000 0.000000 0.000000
vn -1.000000 0.000000 0.000000
vn -1.000000 0.000000 0.000000
vn -1.000000 0.000000 0.000000
vn -1.000000 0.000000 0.000000
s 1
g pCube5
usemtl lambert2SG
f 6/45/1 5/46/2 4/44/3
f 4/44/3 5/46/2 3/43/4
s 2
usemtl lambert4SG
f 8/47/5 7/48/6 6/6/7
f 6/6/7 7/48/6 5/5/8
s 3
usemtl lambert5SG
f 2/9/9 1/10/10 8/8/11
f 8/8/11 1/10/10 7/7/12
s 4
usemtl lambert4SG
f 2/2/13 8/4/14 4/12/15
f 4/12/15 8/4/14 6/11/16
s 5
f 1/3/17 3/13/18 7/1/19
f 7/1/19 3/13/18 5/14/20
s 6
usemtl lambert6SG
f 12/51/21 11/52/22 10/50/23
f 10/50/23 11/52/22 9/49/24
s 7
usemtl initialShadingGroup
f 14/19/25 13/20/26 12/17/27
f 12/17/27 13/20/26 11/18/28
s 8
usemtl lambert6SG
f 16/55/29 15/56/30 14/54/31
f 14/54/31 15/56/30 13/53/32
s 9
usemtl initialShadingGroup
f 10/23/33 9/24/34 16/21/35
f 16/21/35 9/24/34 15/22/36
s 10
usemtl lambert6SG
f 14/26/37 12/17/38 16/25/39
f 16/25/39 12/17/38 10/16/40
s 11
f 11/18/41 13/28/42 9/15/43
f 9/15/43 13/28/42 15/27/44
s 12
usemtl phong1SG
f 20/59/45 19/60/46 18/58/47
f 18/58/47 19/60/46 17/57/48
s 13
usemtl lambert11SG
f 22/33/49 21/34/50 20/31/51
f 20/31/51 21/34/50 19/32/52
s 14
usemtl phong2SG
f 24/63/53 23/64/54 22/62/55
f 22/62/55 23/64/54 21/61/56
s 15
usemtl initialShadingGroup
f 18/37/57 17/38/58 24/35/59
f 24/35/59 17/38/58 23/36/60
s 16
usemtl lambert6SG
f 22/40/61 20/31/62 24/39/63
f 24/39/63 20/31/62 18/30/64
s 17
f 19/32/65 21/42/66 17/29/67
f 17/29/67 21/42/66 23/41/68
g default
v -0.125331 -0.042572 0.137238
v 0.125331 -0.042572 0.137238
v -0.125331 0.042572 0.137238
v 0.125331 0.042572 0.137238
v -0.125331 0.134436 -0.137238
v 0.125331 0.134436 -0.137238
v -0.125331 -0.042572 -0.137238
v 0.125331 -0.042572 -0.137238
v -0.011449 0.093234 -0.138562
v 0.011449 0.093234 -0.138562
v -0.011449 0.195911 -0.138562
v 0.011449 0.195911 -0.138562
v -0.011449 0.195911 -0.146096
v 0.011449 0.195911 -0.146096
v -0.011449 0.093234 -0.146096
v 0.011449 0.093234 -0.146096
v -0.048839 0.194361 -0.134334
v 0.046748 0.194361 -0.134334
v -0.048839 0.244331 -0.134334
v 0.046748 0.244331 -0.134334
v -0.048839 0.244331 -0.149102
v 0.046748 0.244331 -0.149102
v -0.048839 0.194361 -0.149102
v 0.046748 0.194361 -0.149102
vt 1.000000 0.000000
vt 0.000000 0.000000
vt 0.000000 0.000000
vt 1.000000 0.000000
vt -0.000000 1.000000
vt 1.000000 1.000000
vt 0.000001 1.000000
vt 0.999999 1.000000
vt 1.000000 -0.000000
vt 0.000000 -0.000000
vt 1.000000 1.000000
vt 0.000000 0.481021
vt 0.000000 0.481021
vt 1.000000 1.000000
vt 0.375000 0.000000
vt 0.625000 0.000000
vt 0.625000 0.250000
vt 0.375000 0.250000
vt 0.625000 0.500000
vt 0.375000 0.500000
vt 0.625000 0.750000
vt 0.375000 0.750000
vt 0.625000 1.000000
vt 0.375000 1.000000
vt 0.875000 0.000000
vt 0.875000 0.250000
vt 0.125000 0.000000
vt 0.125000 0.250000
vt 0.375000 0.000000
vt 0.625000 0.000000
vt 0.625000 0.250000
vt 0.375000 0.250000
vt 0.625000 0.500000
vt 0.375000 0.500000
vt 0.625000 0.750000
vt 0.375000 0.750000
vt 0.625000 1.000000
vt 0.375000 1.000000
vt 0.875000 0.000000
vt 0.875000 0.250000
vt 0.125000 0.000000
vt 0.125000 0.250000
vt 0.000000 0.000000
vt 1.000000 0.000000
vt 1.000000 1.000000
vt -0.000000 1.000000
vt 0.999999 0.000000
vt 0.000001 0.000000
vt 0.000000 -0.000000
vt 1.000000 -0.000000
vt 1.000000 1.000000
vt 0.000000 1.000000
vt 0.000000 1.000000
vt 1.000000 1.000000
vt 1.000000 -0.000000
vt 0.000000 -0.000000
vt 0.000000 -0.000000
vt 1.000000 -0.000000
vt 1.000000 1.000000
vt 0.000000 1.000000
vt 0.000000 1.000000
vt 1.000000 1.000000
vt 1.000000 -0.000000
vt 0.000000 -0.000000
vn 0.000000 0.948298 0.317383
vn 0.000000 0.948298 0.317383
vn 0.000000 0.948298 0.317383
vn 0.000000 0.948297 0.317383
vn 0.000000 -0.000000 -1.000000
vn 0.000000 -0.000000 -1.000000
vn 0.000000 -0.000000 -1.000000
vn 0.000000 -0.000000 -1.000000
vn 0.000000 -1.000000 0.000000
vn 0.000000 -1.000000 0.000000
vn 0.000000 -1.000000 0.000000
vn 0.000000 -1.000000 0.000000
vn 1.000000 -0.000001 -0.000001
vn 1.000000 -0.000001 -0.000000
vn 1.000000 -0.000001 -0.000000
vn 1.000000 -0.000001 -0.000000
vn -1.000000 -0.000001 -0.000001
vn -1.000000 -0.000001 -0.000000
vn -1.000000 -0.000001 -0.000000
vn -1.000000 -0.000001 -0.000000
vn 0.000000 0.000000 1.000000
vn 0.000000 0.000000 1.000000
vn 0.000000 0.000000 1.000000
vn 0.000000 0.000000 1.000000
vn 0.000000 1.000000 0.000000
vn 0.000000 1.000000 0.000000
vn 0.000000 1.000000 0.000000
vn 0.000000 1.000000 0.000000
vn 0.000000 0.000000 -1.000000
vn 0.000000 0.000000 -1.000000
vn 0.000000 0.000000 -1.000000
vn 0.000000 0.000000 -1.000000
vn 0.000000 -1.000000 0.000000
vn 0.000000 -1.000000 0.000000
vn 0.000000 -1.000000 0.000000
vn 0.000000 -1.000000 0.000000
vn 1.000000 0.000000 0.000000
vn 1.000000 0.000000 0.000000
vn 1.000000 0.000000 0.000000
vn 1.000000 0.000000 0.000000
vn -1.000000 0.000000 0.000000
vn -1.000000 0.000000 0.000000
vn -1.000000 0.000000 0.000000
vn -1.000000 0.000000 0.000000
vn 0.000000 0.000000 1.000000
vn 0.000000 0.000000 1.000000
vn 0.000000 0.000000 1.000000
vn 0.000000 0.000000 1.000000
vn 0.000000 1.000000 0.000000
vn 0.000000 1.000000 0.000000
vn 0.000000 1.000000 0.000000
vn 0.000000 1.000000 0.000000
vn 0.000000 0.000000 -1.000000
vn 0.000000 0.000000 -1.000000
vn 0.000000 0.000000 -1.000000
vn 0.000000 0.000000 -1.000000
vn 0.000000 -1.000000 0.000000
vn 0.000000 -1.000000 0.000000
vn 0.000000 -1.000000 0.000000
vn 0.000000 -1.000000 0.000000
vn 1.000000 0.000000 0.000000
vn 1.000000 0.000000 0.000000
vn 1.000000 0.000000 0.000000
vn 1.000000 0.000000 0.000000
vn -1.000000 0.000000 0.000000
vn -1.000000 0.000000 0.000000
vn -1.000000 0.000000 0.000000
vn -1.000000 0.000000 0.000000
s 1
g pCube5
f 30/109/69 29/110/70 28/108/71
f 28/108/71 29/110/70 27/107/72
s 2
f 32/111/73 31/112/74 30/70/75
f 30/70/75 31/112/74 29/69/76
s 3
f 26/73/77 25/74/78 32/72/79
f 32/72/79 25/74/78 31/71/80
s 4
f 26/66/81 32/68/82 28/76/83
f 28/76/83 32/68/82 30/75/84
s 5
f 25/67/85 27/77/86 31/65/87
f 31/65/87 27/77/86 29/78/88
s 6
f 36/115/89 35/116/90 34/114/91
f 34/114/91 35/116/90 33/113/92
s 7
f 38/83/93 37/84/94 36/81/95
f 36/81/95 37/84/94 35/82/96
s 8
f 40/119/97 39/120/98 38/118/99
f 38/118/99 39/120/98 37/117/100
s 9
f 34/87/101 33/88/102 40/85/103
f 40/85/103 33/88/102 39/86/104
s 10
f 38/90/105 36/81/106 40/89/107
f 40/89/107 36/81/106 34/80/108
s 11
f 35/82/109 37/92/110 33/79/111
f 33/79/111 37/92/110 39/91/112
s 12
f 44/123/113 43/124/114 42/122/115
f 42/122/115 43/124/114 41/121/116
s 13
f 46/97/117 45/98/118 44/95/119
f 44/95/119 45/98/118 43/96/120
s 14
f 48/127/121 47/128/122 46/126/123
f 46/126/123 47/128/122 45/125/124
s 15
f 42/101/125 41/102/126 48/99/127
f 48/99/127 41/102/126 47/100/128
s 16
f 46/104/129 44/95/130 48/103/131
f 48/103/131 44/95/130 42/94/132
s 17
f 43/96/133 45/106/134 41/93/135
f 41/93/135 45/106/134 47/105/136
