# This file uses centimeters as units for non-parametric coordinates.

mtllib cajaRegistradora.mtl
g default
v -0.125331 -0.042572 0.137238
v 0.125331 -0.042572 0.137238
v -0.125331 0.042572 0.137238
v 0.125331 0.042572 0.137238
v -0.125331 0.134436 -0.137238
v 0.125331 0.134436 -0.137238
v -0.125331 -0.042572 -0.137238
v 0.125331 -0.042572 -0.137238
v -0.011449 0.093234 -0.138562
v 0.011449 0.093234 -0.138562
v -0.011449 0.195911 -0.138562
v 0.011449 0.195911 -0.138562
v -0.011449 0.195911 -0.146096
v 0.011449 0.195911 -0.146096
v -0.011449 0.093234 -0.146096
v 0.011449 0.093234 -0.146096
v -0.048839 0.194361 -0.134334
v 0.046748 0.194361 -0.134334
v -0.048839 0.244331 -0.134334
v 0.046748 0.244331 -0.134334
v -0.048839 0.244331 -0.149102
v 0.046748 0.244331 -0.149102
v -0.048839 0.194361 -0.149102
v 0.046748 0.194361 -0.149102
vt 1.000000 0.000000
vt 0.000000 0.000000
vt 0.000000 0.000000
vt 1.000000 0.000000
vt -0.000000 1.000000
vt 1.000000 1.000000
vt 0.000001 1.000000
vt 0.999999 1.000000
vt 1.000000 -0.000000
vt 0.000000 -0.000000
vt 1.000000 1.000000
vt 0.000000 0.481021
vt 0.000000 0.481021
vt 1.000000 1.000000
vt 0.375000 0.000000
vt 0.625000 0.000000
vt 0.625000 0.250000
vt 0.375000 0.250000
vt 0.625000 0.500000
vt 0.375000 0.500000
vt 0.625000 0.750000
vt 0.375000 0.750000
vt 0.625000 1.000000
vt 0.375000 1.000000
vt 0.875000 0.000000
vt 0.875000 0.250000
vt 0.125000 0.000000
vt 0.125000 0.250000
vt 0.375000 0.000000
vt 0.625000 0.000000
vt 0.625000 0.250000
vt 0.375000 0.250000
vt 0.625000 0.500000
vt 0.375000 0.500000
vt 0.625000 0.750000
vt 0.375000 0.750000
vt 0.625000 1.000000
vt 0.375000 1.000000
vt 0.875000 0.000000
vt 0.875000 0.250000
vt 0.125000 0.000000
vt 0.125000 0.250000
vt 0.000000 0.000000
vt 1.000000 0.000000
vt 1.000000 1.000000
vt -0.000000 1.000000
vt 0.000000 0.000000
vt 1.000000 0.000000
vt 1.000000 1.000000
vt 0.000000 1.000000
vt 0.999999 0.000000
vt 0.000001 0.000000
vt 0.000000 -0.000000
vt 1.000000 -0.000000
vt 1.000000 1.000000
vt 0.000000 1.000000
vt 0.000000 1.000000
vt 1.000000 1.000000
vt 1.000000 -0.000000
vt 0.000000 -0.000000
vt 0.000000 -0.000000
vt 1.000000 -0.000000
vt 1.000000 1.000000
vt 0.000000 1.000000
vt 0.000000 1.000000
vt 1.000000 1.000000
vt 1.000000 -0.000000
vt 0.000000 -0.000000
vn 0.000000 -0.000001 1.000000
vn 0.000000 -0.000001 1.000000
vn 0.000000 -0.000001 1.000000
vn 0.000000 -0.000001 1.000000
vn 0.000000 0.948297 0.317383
vn 0.000000 0.948298 0.317383
vn 0.000000 0.948298 0.317383
vn 0.000000 0.948298 0.317383
vn 0.000000 -0.000000 -1.000000
vn 0.000000 -0.000000 -1.000000
vn 0.000000 -0.000000 -1.000000
vn 0.000000 -0.000000 -1.000000
vn 0.000000 -1.000000 0.000000
vn 0.000000 -1.000000 0.000000
vn 0.000000 -1.000000 0.000000
vn 0.000000 -1.000000 0.000000
vn 1.000000 -0.000001 -0.000001
vn 1.000000 -0.000001 -0.000000
vn 1.000000 -0.000001 -0.000000
vn 1.000000 -0.000001 -0.000000
vn -1.000000 -0.000001 -0.000001
vn -1.000000 -0.000001 -0.000000
vn -1.000000 -0.000001 -0.000000
vn -1.000000 -0.000001 -0.000000
vn 0.000000 0.000000 1.000000
vn 0.000000 0.000000 1.000000
vn 0.000000 0.000000 1.000000
vn 0.000000 0.000000 1.000000
vn 0.000000 1.000000 0.000000
vn 0.000000 1.000000 0.000000
vn 0.000000 1.000000 0.000000
vn 0.000000 1.000000 0.000000
vn 0.000000 0.000000 -1.000000
vn 0.000000 0.000000 -1.000000
vn 0.000000 0.000000 -1.000000
vn 0.000000 0.000000 -1.000000
vn 0.000000 -1.000000 0.000000
vn 0.000000 -1.000000 0.000000
vn 0.000000 -1.000000 0.000000
vn 0.000000 -1.000000 0.000000
vn 1.000000 0.000000 0.000000
vn 1.000000 0.000000 0.000000
vn 1.000000 0.000000 0.000000
vn 1.000000 0.000000 0.000000
vn -1.000000 0.000000 0.000000
vn -1.000000 0.000000 0.000000
vn -1.000000 0.000000 0.000000
vn -1.000000 0.000000 0.000000
vn 0.000000 0.000000 1.000000
vn 0.000000 0.000000 1.000000
vn 0.000000 0.000000 1.000000
vn 0.000000 0.000000 1.000000
vn 0.000000 1.000000 0.000000
vn 0.000000 1.000000 0.000000
vn 0.000000 1.000000 0.000000
vn 0.000000 1.000000 0.000000
vn 0.000000 0.000000 -1.000000
vn 0.000000 0.000000 -1.000000
vn 0.000000 0.000000 -1.000000
vn 0.000000 0.000000 -1.000000
vn 0.000000 -1.000000 0.000000
vn 0.000000 -1.000000 0.000000
vn 0.000000 -1.000000 0.000000
vn 0.000000 -1.000000 0.000000
vn 1.000000 0.000000 0.000000
vn 1.000000 0.000000 0.000000
vn 1.000000 0.000000 0.000000
vn 1.000000 0.000000 0.000000
vn -1.000000 0.000000 0.000000
vn -1.000000 0.000000 0.000000
vn -1.000000 0.000000 0.000000
vn -1.000000 0.000000 0.000000
s 1
g pCube5
usemtl lambert3SG
f 1/47/1 2/48/2 3/50/3
f 3/50/3 2/48/2 4/49/4
s 2
usemtl lambert2SG
f 3/43/5 4/44/6 5/46/7
f 5/46/7 4/44/6 6/45/8
s 3
usemtl lambert4SG
f 5/5/9 6/6/10 7/52/11
f 7/52/11 6/6/10 8/51/12
s 4
usemtl lambert5SG
f 7/7/13 8/8/14 1/10/15
f 1/10/15 8/8/14 2/9/16
s 5
usemtl lambert4SG
f 2/2/17 8/4/18 4/12/19
f 4/12/19 8/4/18 6/11/20
s 6
f 1/3/21 3/13/22 7/1/23
f 7/1/23 3/13/22 5/14/24
s 7
usemtl lambert6SG
f 9/53/25 10/54/26 11/56/27
f 11/56/27 10/54/26 12/55/28
s 8
usemtl initialShadingGroup
f 11/18/29 12/17/30 13/20/31
f 13/20/31 12/17/30 14/19/32
s 9
usemtl lambert6SG
f 13/57/33 14/58/34 15/60/35
f 15/60/35 14/58/34 16/59/36
s 10
usemtl initialShadingGroup
f 15/22/37 16/21/38 9/24/39
f 9/24/39 16/21/38 10/23/40
s 11
usemtl lambert6SG
f 10/16/41 16/25/42 12/17/43
f 12/17/43 16/25/42 14/26/44
s 12
f 15/27/45 9/15/46 13/28/47
f 13/28/47 9/15/46 11/18/48
s 13
usemtl phong1SG
f 17/61/49 18/62/50 19/64/51
f 19/64/51 18/62/50 20/63/52
s 14
usemtl initialShadingGroup
f 19/32/53 20/31/54 21/34/55
f 21/34/55 20/31/54 22/33/56
s 15
usemtl phong2SG
f 21/65/57 22/66/58 23/68/59
f 23/68/59 22/66/58 24/67/60
s 16
usemtl initialShadingGroup
f 23/36/61 24/35/62 17/38/63
f 17/38/63 24/35/62 18/37/64
s 17
usemtl lambert6SG
f 18/30/65 24/39/66 20/31/67
f 20/31/67 24/39/66 22/40/68
s 18
f 23/41/69 17/29/70 21/42/71
f 21/42/71 17/29/70 19/32/72
g default
v -0.125331 -0.042572 0.137238
v 0.125331 -0.042572 0.137238
v -0.125331 0.042572 0.137238
v 0.125331 0.042572 0.137238
v -0.125331 0.134436 -0.137238
v 0.125331 0.134436 -0.137238
v -0.125331 -0.042572 -0.137238
v 0.125331 -0.042572 -0.137238
v -0.011449 0.093234 -0.138562
v 0.011449 0.093234 -0.138562
v -0.011449 0.195911 -0.138562
v 0.011449 0.195911 -0.138562
v -0.011449 0.195911 -0.146096
v 0.011449 0.195911 -0.146096
v -0.011449 0.093234 -0.146096
v 0.011449 0.093234 -0.146096
v -0.048839 0.194361 -0.134334
v 0.046748 0.194361 -0.134334
v -0.048839 0.244331 -0.134334
v 0.046748 0.244331 -0.134334
v -0.048839 0.244331 -0.149102
v 0.046748 0.244331 -0.149102
v -0.048839 0.194361 -0.149102
v 0.046748 0.194361 -0.149102
vt 1.000000 0.000000
vt 0.000000 0.000000
vt 0.000000 0.000000
vt 1.000000 0.000000
vt -0.000000 1.000000
vt 1.000000 1.000000
vt 0.000001 1.000000
vt 0.999999 1.000000
vt 1.000000 -0.000000
vt 0.000000 -0.000000
vt 1.000000 1.000000
vt 0.000000 0.481021
vt 0.000000 0.481021
vt 1.000000 1.000000
vt 0.375000 0.000000
vt 0.625000 0.000000
vt 0.625000 0.250000
vt 0.375000 0.250000
vt 0.625000 0.500000
vt 0.375000 0.500000
vt 0.625000 0.750000
vt 0.375000 0.750000
vt 0.625000 1.000000
vt 0.375000 1.000000
vt 0.875000 0.000000
vt 0.875000 0.250000
vt 0.125000 0.000000
vt 0.125000 0.250000
vt 0.375000 0.000000
vt 0.625000 0.000000
vt 0.625000 0.250000
vt 0.375000 0.250000
vt 0.625000 0.500000
vt 0.375000 0.500000
vt 0.625000 0.750000
vt 0.375000 0.750000
vt 0.625000 1.000000
vt 0.375000 1.000000
vt 0.875000 0.000000
vt 0.875000 0.250000
vt 0.125000 0.000000
vt 0.125000 0.250000
vt 0.000000 0.000000
vt 1.000000 0.000000
vt 1.000000 1.000000
vt -0.000000 1.000000
vt 0.000000 0.000000
vt 1.000000 0.000000
vt 1.000000 1.000000
vt 0.000000 1.000000
vt 0.999999 0.000000
vt 0.000001 0.000000
vt 0.000000 -0.000000
vt 1.000000 -0.000000
vt 1.000000 1.000000
vt 0.000000 1.000000
vt 0.000000 1.000000
vt 1.000000 1.000000
vt 1.000000 -0.000000
vt 0.000000 -0.000000
vt 0.000000 -0.000000
vt 1.000000 -0.000000
vt 1.000000 1.000000
vt 0.000000 1.000000
vt 0.000000 1.000000
vt 1.000000 1.000000
vt 1.000000 -0.000000
vt 0.000000 -0.000000
vn 0.000000 -0.000001 1.000000
vn 0.000000 -0.000001 1.000000
vn 0.000000 -0.000001 1.000000
vn 0.000000 -0.000001 1.000000
vn 0.000000 0.948297 0.317383
vn 0.000000 0.948298 0.317383
vn 0.000000 0.948298 0.317383
vn 0.000000 0.948298 0.317383
vn 0.000000 -0.000000 -1.000000
vn 0.000000 -0.000000 -1.000000
vn 0.000000 -0.000000 -1.000000
vn 0.000000 -0.000000 -1.000000
vn 0.000000 -1.000000 0.000000
vn 0.000000 -1.000000 0.000000
vn 0.000000 -1.000000 0.000000
vn 0.000000 -1.000000 0.000000
vn 1.000000 -0.000001 -0.000001
vn 1.000000 -0.000001 -0.000000
vn 1.000000 -0.000001 -0.000000
vn 1.000000 -0.000001 -0.000000
vn -1.000000 -0.000001 -0.000001
vn -1.000000 -0.000001 -0.000000
vn -1.000000 -0.000001 -0.000000
vn -1.000000 -0.000001 -0.000000
vn 0.000000 0.000000 1.000000
vn 0.000000 0.000000 1.000000
vn 0.000000 0.000000 1.000000
vn 0.000000 0.000000 1.000000
vn 0.000000 1.000000 0.000000
vn 0.000000 1.000000 0.000000
vn 0.000000 1.000000 0.000000
vn 0.000000 1.000000 0.000000
vn 0.000000 0.000000 -1.000000
vn 0.000000 0.000000 -1.000000
vn 0.000000 0.000000 -1.000000
vn 0.000000 0.000000 -1.000000
vn 0.000000 -1.000000 0.000000
vn 0.000000 -1.000000 0.000000
vn 0.000000 -1.000000 0.000000
vn 0.000000 -1.000000 0.000000
vn 1.000000 0.000000 0.000000
vn 1.000000 0.000000 0.000000
vn 1.000000 0.000000 0.000000
vn 1.000000 0.000000 0.000000
vn -1.000000 0.000000 0.000000
vn -1.000000 0.000000 0.000000
vn -1.000000 0.000000 0.000000
vn -1.000000 0.000000 0.000000
vn 0.000000 0.000000 1.000000
vn 0.000000 0.000000 1.000000
vn 0.000000 0.000000 1.000000
vn 0.000000 0.000000 1.000000
vn 0.000000 1.000000 0.000000
vn 0.000000 1.000000 0.000000
vn 0.000000 1.000000 0.000000
vn 0.000000 1.000000 0.000000
vn 0.000000 0.000000 -1.000000
vn 0.000000 0.000000 -1.000000
vn 0.000000 0.000000 -1.000000
vn 0.000000 0.000000 -1.000000
vn 0.000000 -1.000000 0.000000
vn 0.000000 -1.000000 0.000000
vn 0.000000 -1.000000 0.000000
vn 0.000000 -1.000000 0.000000
vn 1.000000 0.000000 0.000000
vn 1.000000 0.000000 0.000000
vn 1.000000 0.000000 0.000000
vn 1.000000 0.000000 0.000000
vn -1.000000 0.000000 0.000000
vn -1.000000 0.000000 0.000000
vn -1.000000 0.000000 0.000000
vn -1.000000 0.000000 0.000000
s 1
g pCube5
f 25/115/73 26/116/74 27/118/75
f 27/118/75 26/116/74 28/117/76
s 2
f 27/111/77 28/112/78 29/114/79
f 29/114/79 28/112/78 30/113/80
s 3
f 29/73/81 30/74/82 31/120/83
f 31/120/83 30/74/82 32/119/84
s 4
f 31/75/85 32/76/86 25/78/87
f 25/78/87 32/76/86 26/77/88
s 5
f 26/70/89 32/72/90 28/80/91
f 28/80/91 32/72/90 30/79/92
s 6
f 25/71/93 27/81/94 31/69/95
f 31/69/95 27/81/94 29/82/96
s 7
f 33/121/97 34/122/98 35/124/99
f 35/124/99 34/122/98 36/123/100
s 8
f 35/86/101 36/85/102 37/88/103
f 37/88/103 36/85/102 38/87/104
s 9
f 37/125/105 38/126/106 39/128/107
f 39/128/107 38/126/106 40/127/108
s 10
f 39/90/109 40/89/110 33/92/111
f 33/92/111 40/89/110 34/91/112
s 11
f 34/84/113 40/93/114 36/85/115
f 36/85/115 40/93/114 38/94/116
s 12
f 39/95/117 33/83/118 37/96/119
f 37/96/119 33/83/118 35/86/120
s 13
f 41/129/121 42/130/122 43/132/123
f 43/132/123 42/130/122 44/131/124
s 14
f 43/100/125 44/99/126 45/102/127
f 45/102/127 44/99/126 46/101/128
s 15
f 45/133/129 46/134/130 47/136/131
f 47/136/131 46/134/130 48/135/132
s 16
f 47/104/133 48/103/134 41/106/135
f 41/106/135 48/103/134 42/105/136
s 17
f 42/98/137 48/107/138 44/99/139
f 44/99/139 48/107/138 46/108/140
s 18
f 47/109/141 41/97/142 45/110/143
f 45/110/143 41/97/142 43/100/144
