# This file uses centimeters as units for non-parametric coordinates.

mtllib cajon.mtl
g default
v -0.122091 -0.041890 0.137071
v 0.122091 -0.041890 0.137071
v -0.122091 0.041890 0.137071
v 0.122091 0.041890 0.137071
v -0.122091 0.041890 -0.103885
v 0.122091 0.041890 -0.103885
v -0.122091 -0.041890 -0.103885
v 0.122091 -0.041890 -0.103885
vt 1.000000 0.000000
vt 0.000000 0.000000
vt 0.000000 0.000000
vt 1.000000 0.000000
vt 0.000000 1.000000
vt 1.000000 1.000000
vt 0.000000 1.000000
vt 1.000000 1.000000
vt 1.000000 -0.000000
vt 0.000000 -0.000000
vt 1.000000 1.000000
vt 0.000000 1.000000
vt 0.000000 1.000000
vt 1.000000 1.000000
vt 0.000000 0.000000
vt 1.000000 0.000000
vt 1.000000 1.000000
vt 0.000000 1.000000
vt 1.000000 0.000000
vt 0.000000 0.000000
vn 0.000000 0.000000 1.000000
vn 0.000000 0.000000 1.000000
vn 0.000000 0.000000 1.000000
vn 0.000000 0.000000 1.000000
vn 0.000000 0.000000 -1.000000
vn 0.000000 0.000000 -1.000000
vn 0.000000 0.000000 -1.000000
vn 0.000000 0.000000 -1.000000
vn 0.000000 -1.000000 0.000000
vn 0.000000 -1.000000 0.000000
vn 0.000000 -1.000000 0.000000
vn 0.000000 -1.000000 0.000000
vn 1.000000 0.000000 0.000000
vn 1.000000 0.000000 0.000000
vn 1.000000 0.000000 0.000000
vn 1.000000 0.000000 0.000000
vn -1.000000 0.000000 0.000000
vn -1.000000 0.000000 0.000000
vn -1.000000 0.000000 0.000000
vn -1.000000 0.000000 0.000000
s 1
g pCube6
usemtl lambert8SG
f 1/15/1 2/16/2 3/18/3
f 3/18/3 2/16/2 4/17/4
s 2
usemtl lambert9SG
f 5/5/5 6/6/6 7/20/7
f 7/20/7 6/6/6 8/19/8
s 3
usemtl lambert10SG
f 7/7/9 8/8/10 1/10/11
f 1/10/11 8/8/10 2/9/12
s 4
usemtl lambert9SG
f 2/2/13 8/4/14 4/12/15
f 4/12/15 8/4/14 6/11/16
s 5
f 7/1/17 1/3/18 5/14/19
f 5/14/19 1/3/18 3/13/20
g default
v -0.122091 -0.041890 0.137071
v 0.122091 -0.041890 0.137071
v -0.122091 0.041890 0.137071
v 0.122091 0.041890 0.137071
v -0.122091 0.041890 -0.103885
v 0.122091 0.041890 -0.103885
v -0.122091 -0.041890 -0.103885
v 0.122091 -0.041890 -0.103885
vt 1.000000 0.000000
vt 0.000000 0.000000
vt 0.000000 0.000000
vt 1.000000 0.000000
vt 0.000000 1.000000
vt 1.000000 1.000000
vt 0.000000 1.000000
vt 1.000000 1.000000
vt 1.000000 -0.000000
vt 0.000000 -0.000000
vt 1.000000 1.000000
vt 0.000000 1.000000
vt 0.000000 1.000000
vt 1.000000 1.000000
vt 0.000000 0.000000
vt 1.000000 0.000000
vt 1.000000 1.000000
vt 0.000000 1.000000
vt 1.000000 0.000000
vt 0.000000 0.000000
vn 0.000000 0.000000 1.000000
vn 0.000000 0.000000 1.000000
vn 0.000000 0.000000 1.000000
vn 0.000000 0.000000 1.000000
vn 0.000000 0.000000 -1.000000
vn 0.000000 0.000000 -1.000000
vn 0.000000 0.000000 -1.000000
vn 0.000000 0.000000 -1.000000
vn 0.000000 -1.000000 0.000000
vn 0.000000 -1.000000 0.000000
vn 0.000000 -1.000000 0.000000
vn 0.000000 -1.000000 0.000000
vn 1.000000 0.000000 0.000000
vn 1.000000 0.000000 0.000000
vn 1.000000 0.000000 0.000000
vn 1.000000 0.000000 0.000000
vn -1.000000 0.000000 0.000000
vn -1.000000 0.000000 0.000000
vn -1.000000 0.000000 0.000000
vn -1.000000 0.000000 0.000000
s 1
g pCube6
f 9/35/21 10/36/22 11/38/23
f 11/38/23 10/36/22 12/37/24
s 2
f 13/25/25 14/26/26 15/40/27
f 15/40/27 14/26/26 16/39/28
s 3
f 15/27/29 16/28/30 9/30/31
f 9/30/31 16/28/30 10/29/32
s 4
f 10/22/33 16/24/34 12/32/35
f 12/32/35 16/24/34 14/31/36
s 5
f 15/21/37 9/23/38 13/34/39
f 13/34/39 9/23/38 11/33/40
