# This file uses centimeters as units for non-parametric coordinates.

mtllib screen.mtl
g default
v -0.064378 0.007216 1.248999
v 0.064378 0.007216 1.248999
v -0.064378 1.427157 1.248999
v 0.064378 1.427157 1.248999
v -0.064378 1.427157 -1.248999
v 0.064378 1.427157 -1.248999
v -0.064378 0.007216 -1.248999
v 0.064378 0.007216 -1.248999
v -0.064378 1.427157 -1.113413
v -0.064378 0.007216 -1.113412
v 0.064378 0.007216 -1.113412
v 0.064378 1.427157 -1.113413
v -0.064378 1.427157 1.127092
v -0.064378 0.007216 1.127091
v 0.064378 0.007216 1.127091
v 0.064378 1.427157 1.127092
v -0.064378 0.124626 1.248999
v -0.064378 0.124627 1.127092
v -0.064378 0.124627 -1.113412
v -0.064378 0.124627 -1.248999
v 0.064378 0.124627 -1.248999
v 0.064378 0.124626 -1.113412
v 0.064378 0.124626 1.127092
v 0.064378 0.124626 1.248999
v -0.064378 1.290781 -1.248999
v -0.064378 1.290781 -1.113413
v -0.064378 1.290781 1.127092
v -0.064378 1.290781 1.248999
v 0.064378 1.290781 1.248999
v 0.064378 1.290781 1.127092
v 0.064378 1.290781 -1.113413
v 0.064378 1.290781 -1.248999
v -0.064378 0.007216 0.146508
v -0.064378 0.124627 0.146508
v -0.064378 1.290781 0.146508
v -0.064378 1.427157 0.146508
v 0.064378 1.427157 0.146508
v 0.064378 1.290781 0.146508
v 0.064378 0.124626 0.146508
v 0.064378 0.007216 0.146508
v -0.064378 0.537390 1.248999
v -0.064378 0.537390 1.127092
v -0.064378 0.537390 0.146508
v -0.064378 0.537390 -1.113412
v -0.064378 0.537390 -1.248999
v 0.064378 0.537390 -1.248999
v 0.064378 0.537390 -1.113412
v 0.064378 0.537390 0.146508
v 0.064378 0.537390 1.127092
v 0.064378 0.537390 1.248999
v -0.064378 0.007216 -0.114777
v -0.064378 0.124627 -0.114777
v -0.064378 0.537390 -0.114777
v -0.064378 1.290781 -0.114777
v -0.064378 1.427157 -0.114777
v 0.064378 1.427157 -0.114777
v 0.064378 1.290781 -0.114777
v 0.064378 0.537390 -0.114777
v 0.064378 0.124626 -0.114777
v 0.064378 0.007216 -0.114777
v -0.064378 0.777180 -1.248999
v -0.064378 0.777180 -1.113412
v -0.064378 0.777180 -0.114777
v -0.064378 0.777180 0.146508
v -0.064378 0.777180 1.127092
v -0.064378 0.777180 1.248999
v 0.064378 0.777180 1.248999
v 0.064378 0.777180 1.127092
v 0.064378 0.777180 0.146508
v 0.064378 0.777180 -0.114777
v 0.064378 0.777180 -1.113412
v 0.064378 0.777180 -1.248999
v 1.396632 0.777180 -0.114777
v 1.396632 0.537390 -0.114777
v 1.396632 0.777180 0.146508
v 1.396632 0.537390 0.146508
vt 0.375000 0.000000
vt 0.625000 0.000000
vt 0.375000 0.250000
vt 0.625000 0.250000
vt 0.375000 0.500000
vt 0.625000 0.500000
vt 0.375000 0.750000
vt 0.625000 0.750000
vt 0.375000 1.000000
vt 0.625000 1.000000
vt 0.875000 0.000000
vt 0.875000 0.250000
vt 0.125000 0.000000
vt 0.125000 0.250000
vt 0.138570 0.250000
vt 0.375000 0.486430
vt 0.138570 0.000000
vt 0.375000 0.763570
vt 0.625000 0.763570
vt 0.861430 0.000000
vt 0.625000 0.486430
vt 0.861430 0.250000
vt 0.362800 0.250000
vt 0.375000 0.262200
vt 0.362799 0.000000
vt 0.375000 0.987799
vt 0.625000 0.987799
vt 0.637201 0.000000
vt 0.625000 0.262200
vt 0.637200 0.250000
vt 0.375000 0.020672
vt 0.362799 0.020672
vt 0.138570 0.020672
vt 0.125000 0.020672
vt 0.375000 0.729328
vt 0.625000 0.729328
vt 0.875000 0.020672
vt 0.861430 0.020672
vt 0.637201 0.020672
vt 0.625000 0.020672
vt 0.125000 0.225989
vt 0.375000 0.524011
vt 0.138570 0.225989
vt 0.362800 0.225989
vt 0.375000 0.225989
vt 0.625000 0.225989
vt 0.637200 0.225989
vt 0.861430 0.225989
vt 0.625000 0.524011
vt 0.875000 0.225989
vt -0.000000 1.000000
vt 1.000000 1.000000
vt 1.000000 -0.000000
vt 0.000000 -0.000000
vt 0.264663 0.000000
vt 0.375000 0.889663
vt 0.264663 0.020672
vt 0.437662 -0.000000
vt 0.264663 0.225989
vt 0.437662 1.000000
vt 0.264663 0.250000
vt 0.375000 0.360337
vt 0.625000 0.360337
vt 0.735337 0.250000
vt 0.735337 0.225989
vt 0.735337 0.020672
vt 0.625000 0.889663
vt 0.735337 0.000000
vt 0.375000 0.093344
vt 0.362800 0.093344
vt 0.000000 0.353953
vt 0.437662 0.353953
vt 1.000000 0.353953
vt 0.138570 0.093344
vt 0.125000 0.093344
vt 0.375000 0.656656
vt 0.625000 0.656656
vt 0.875000 0.093344
vt 0.861430 0.093344
vt 0.735337 0.093344
vt 0.637200 0.093344
vt 0.625000 0.093344
vt 0.238513 0.000000
vt 0.375000 0.863513
vt 0.238513 0.020672
vt 0.554281 -0.000000
vt 0.554281 0.353953
vt 0.238513 0.225989
vt 0.554281 1.000000
vt 0.238513 0.250000
vt 0.375000 0.386487
vt 0.625000 0.386487
vt 0.761487 0.250000
vt 0.761487 0.225989
vt 0.761487 0.093344
vt 0.761487 0.020672
vt 0.625000 0.863513
vt 0.761487 0.000000
vt 0.125000 0.135563
vt 0.375000 0.614437
vt 1.000000 0.559577
vt 0.138570 0.135563
vt 0.554281 0.559577
vt 0.437662 0.559577
vt 0.362800 0.135563
vt 0.000000 0.559577
vt 0.375000 0.135563
vt 0.625000 0.135563
vt 0.637200 0.135563
vt 0.735337 0.135563
vt 0.761487 0.135563
vt 0.861430 0.135563
vt 0.625000 0.614437
vt 0.875000 0.135563
vt 0.761487 0.093344
vt 0.761487 0.135563
vt 0.735337 0.135563
vt 0.735337 0.093344
vn 0.000000 -0.000001 1.000000
vn 0.000000 -0.000001 1.000000
vn 0.000000 -0.000000 1.000000
vn 0.000000 -0.000000 1.000000
vn 0.000000 1.000000 0.000000
vn 0.000000 1.000000 0.000000
vn 0.000000 1.000000 0.000000
vn 0.000000 1.000000 0.000000
vn 0.000000 0.000000 -1.000000
vn 0.000000 0.000000 -1.000000
vn 0.000000 0.000000 -1.000000
vn 0.000000 0.000000 -1.000000
vn 0.000000 -1.000000 0.000000
vn 0.000000 -1.000000 0.000000
vn 0.000000 -1.000000 0.000000
vn 0.000000 -1.000000 0.000000
vn 1.000000 0.000000 0.000000
vn 1.000000 0.000000 0.000000
vn 1.000000 0.000000 0.000000
vn 1.000000 0.000000 0.000000
vn -1.000000 0.000000 0.000000
vn -1.000000 0.000000 0.000000
vn -1.000000 0.000000 0.000000
vn -1.000000 0.000000 0.000000
vn -1.000000 0.000000 0.000000
vn -1.000000 0.000000 0.000000
vn -1.000000 0.000000 0.000000
vn -1.000000 0.000000 0.000000
vn 0.000000 -1.000000 0.000000
vn 0.000000 -1.000000 0.000000
vn 0.000000 -1.000000 0.000000
vn 0.000000 -1.000000 0.000000
vn 1.000000 0.000000 0.000000
vn 1.000000 0.000000 0.000000
vn 1.000000 -0.000000 0.000000
vn 1.000000 0.000000 0.000000
vn 0.000000 1.000000 -0.000000
vn 0.000000 1.000000 -0.000000
vn 0.000000 1.000000 0.000000
vn 0.000000 1.000000 0.000000
vn -1.000000 0.000000 0.000000
vn -1.000000 0.000000 0.000000
vn 0.000000 -1.000000 0.000000
vn 0.000000 -1.000000 0.000000
vn 1.000000 -0.000000 0.000000
vn 1.000000 -0.000000 0.000000
vn 0.000000 1.000000 0.000000
vn 0.000000 1.000000 0.000000
vn -1.000000 0.000000 0.000000
vn -1.000000 0.000000 0.000000
vn -1.000000 -0.000000 0.000000
vn -1.000000 0.000000 0.000000
vn -1.000000 -0.000000 0.000000
vn -1.000000 0.000000 0.000000
vn -1.000000 0.000000 0.000000
vn -1.000000 -0.000000 0.000000
vn -1.000000 0.000000 0.000000
vn -1.000000 0.000000 0.000000
vn 0.000000 0.000000 -1.000000
vn 0.000000 0.000000 -1.000000
vn 0.000000 0.000000 -1.000000
vn 0.000000 0.000000 -1.000000
vn 1.000000 -0.000000 0.000000
vn 1.000000 0.000000 0.000000
vn 1.000000 0.000000 0.000000
vn 1.000000 0.000000 0.000000
vn 1.000000 -0.000000 0.000000
vn 1.000000 -0.000000 0.000000
vn 1.000000 0.000000 0.000000
vn 1.000000 -0.000000 0.000000
vn 1.000000 -0.000000 0.000000
vn 1.000000 0.000000 0.000000
vn 0.000000 0.000000 1.000000
vn 0.000000 0.000000 1.000000
vn 0.000000 0.000000 1.000000
vn 0.000000 0.000000 1.000000
vn -1.000000 0.000000 0.000000
vn -1.000000 0.000000 0.000000
vn -1.000000 0.000000 0.000000
vn -1.000000 0.000000 0.000000
vn -1.000000 -0.000000 0.000000
vn 0.000000 0.000000 1.000000
vn 0.000000 0.000000 1.000000
vn 1.000000 0.000000 0.000000
vn 1.000000 0.000000 0.000000
vn 1.000000 0.000000 0.000000
vn 1.000000 -0.000000 0.000000
vn 1.000000 0.000000 0.000000
vn 0.000000 0.000000 -1.000000
vn 0.000000 0.000000 -1.000000
vn -1.000000 0.000000 0.000000
vn -1.000000 0.000000 0.000000
vn -1.000000 -0.000000 0.000000
vn -1.000000 0.000000 0.000000
vn -1.000000 0.000000 0.000000
vn 0.000000 1.000000 0.000000
vn 0.000000 1.000000 0.000000
vn 1.000000 -0.000000 0.000000
vn 1.000000 -0.000000 0.000000
vn 1.000000 -0.000000 0.000000
vn 1.000000 0.000000 0.000000
vn 1.000000 -0.000000 0.000000
vn 0.000000 -1.000000 0.000000
vn 0.000000 -1.000000 0.000000
vn -1.000000 -0.000000 0.000000
vn -1.000000 0.000000 0.000000
vn -1.000000 -0.000000 0.000000
vn -1.000000 0.000000 0.000000
vn -1.000000 0.000000 0.000000
vn -1.000000 0.000000 0.000000
vn 0.000000 0.000000 -1.000000
vn 0.000000 0.000000 -1.000000
vn 1.000000 0.000000 0.000000
vn 1.000000 0.000000 0.000000
vn 1.000000 -0.000000 0.000000
vn 1.000000 0.000000 0.000000
vn 1.000000 -0.000000 0.000000
vn 1.000000 0.000000 0.000000
vn 0.000000 0.000000 1.000000
vn 0.000000 0.000000 1.000000
vn 1.000000 0.000000 0.000000
vn 1.000000 0.000000 0.000000
vn 1.000000 0.000000 0.000000
vn 1.000000 0.000000 0.000000
vn 0.000000 0.000000 -1.000000
vn 0.000000 0.000000 -1.000000
vn 0.000000 0.000000 -1.000000
vn 0.000000 0.000000 -1.000000
vn 0.000000 1.000000 0.000000
vn 0.000000 1.000000 0.000000
vn 0.000000 1.000000 0.000000
vn 0.000000 1.000000 0.000000
vn 0.000000 -0.000000 1.000000
vn 0.000000 -0.000000 1.000000
vn 0.000000 -0.000000 1.000000
vn 0.000000 -0.000000 1.000000
vn 0.000000 -1.000000 0.000000
vn 0.000000 -1.000000 0.000000
vn 0.000000 -1.000000 0.000000
vn 0.000000 -1.000000 0.000000
s 1
g pCube1
usemtl lambert3SG
f 1/1/1 2/2/2 24/40/3 17/31/4
s 2
f 3/3/5 4/4/6 16/29/7 13/24/8
s 3
f 20/35/9 21/36/10 8/8/11 7/7/12
s 4
f 14/26/13 15/27/14 2/10/15 1/9/16
s 5
f 2/2/17 15/28/18 23/39/19 24/40/20
s 6
f 17/31/21 18/32/22 14/25/23 1/1/24
f 7/13/25 10/17/26 19/33/27 20/34/28
s 4
f 7/7/29 8/8/30 11/19/31 10/18/32
s 5
f 21/37/33 22/38/34 11/20/35 8/11/36
s 2
f 9/16/37 12/21/38 6/6/39 5/5/40
s 6
f 51/83/41 52/85/42 19/33/27 10/17/26
s 4
f 10/18/32 11/19/31 60/97/43 51/84/44
s 5
f 22/38/34 59/96/45 60/98/46 11/20/35
s 2
f 55/91/47 56/92/48 12/21/38 9/16/37
s 6
f 13/23/49 27/44/50 28/45/51 3/3/52
f 9/15/53 26/43/54 54/88/55 55/90/56
f 25/41/57 26/43/54 9/15/53 5/14/58
s 3
f 5/5/59 6/6/60 32/49/61 25/42/62
s 5
f 12/22/63 31/48/64 32/50/65 6/12/66
f 56/93/67 57/94/68 31/48/64 12/22/63
f 29/46/69 30/47/70 16/30/71 4/4/72
s 1
f 28/45/73 29/46/74 4/4/75 3/3/76
s 6
f 20/34/28 19/33/27 44/74/77 45/75/78
usemtl lambert2SG
f 52/86/42 53/87/79 44/73/77 19/53/27
usemtl lambert3SG
f 41/69/80 42/70/81 18/32/22 17/31/21
s 1
f 17/31/4 24/40/3 50/82/82 41/69/83
s 5
f 24/40/20 23/39/19 49/81/84 50/82/85
f 47/79/86 58/95/87 59/96/45 22/38/34
f 46/78/88 47/79/86 22/38/34 21/37/33
s 3
f 45/76/89 46/77/90 21/36/10 20/35/9
s 6
f 18/32/22 34/57/91 33/55/92 14/25/23
usemtl lambert2SG
f 42/71/81 43/72/93 34/58/91 18/54/22
usemtl lambert3SG
f 36/61/94 35/59/95 27/44/50 13/23/49
s 2
f 13/24/8 16/29/7 37/63/96 36/62/97
s 5
f 16/30/71 30/47/70 38/65/98 37/64/99
f 39/66/100 48/80/101 49/81/84 23/39/19
f 40/68/102 39/66/100 23/39/19 15/28/18
s 4
f 33/56/103 40/67/104 15/27/14 14/26/13
s 6
f 28/45/51 27/44/50 65/105/105 66/107/106
usemtl lambert2SG
f 27/51/50 35/60/95 64/104/107 65/106/105
f 62/101/108 63/103/109 54/89/55 26/52/54
usemtl lambert3SG
f 61/99/110 62/102/108 26/43/54 25/41/57
s 3
f 25/42/62 32/49/61 72/113/111 61/100/112
s 5
f 32/50/65 31/48/64 71/112/113 72/114/114
f 31/48/64 57/94/68 70/111/115 71/112/113
f 68/109/116 69/110/117 38/65/98 30/47/70
f 67/108/118 68/109/116 30/47/70 29/46/69
s 1
f 66/107/119 67/108/120 29/46/74 28/45/73
s 6
f 33/55/92 34/57/91 52/85/42 51/83/41
usemtl lambert2SG
f 34/58/91 43/72/93 53/87/79 52/86/42
f 54/89/55 63/103/109 64/104/107 35/60/95
usemtl lambert3SG
f 55/90/56 54/88/55 35/59/95 36/61/94
s 2
f 36/62/97 37/63/96 56/92/48 55/91/47
s 5
f 37/64/99 38/65/98 57/94/68 56/93/67
f 69/110/117 70/111/115 57/94/68 38/65/98
f 59/96/45 58/95/87 48/80/101 39/66/100
f 60/98/46 59/96/45 39/66/100 40/68/102
s 4
f 51/84/44 60/97/43 40/67/104 33/56/103
s 6
f 45/75/78 44/74/77 62/102/108 61/99/110
usemtl lambert2SG
f 44/73/77 53/87/79 63/103/109 62/101/108
f 64/104/107 63/103/109 53/87/79 43/72/93
f 65/106/105 64/104/107 43/72/93 42/71/81
usemtl lambert3SG
f 66/107/106 65/105/105 42/70/81 41/69/80
s 1
f 41/69/83 50/82/82 67/108/120 66/107/119
s 5
f 50/82/85 49/81/84 68/109/116 67/108/118
f 49/81/84 48/80/101 69/110/117 68/109/116
s off
f 74/115/121 73/116/122 75/117/123 76/118/124
s 5
f 71/112/113 70/111/115 58/95/87 47/79/86
f 72/114/114 71/112/113 47/79/86 46/78/88
s 3
f 61/100/112 72/113/111 46/77/90 45/76/89
s off
f 58/95/125 70/111/126 73/116/127 74/115/128
f 70/111/129 69/110/130 75/117/131 73/116/132
f 69/110/133 48/80/134 76/118/135 75/117/136
f 48/80/137 58/95/138 74/115/139 76/118/140
