# This file uses centimeters as units for non-parametric coordinates.

mtllib doorRight.mtl
g default
v 7.894589 -0.000178 -0.013219
v 8.194589 -0.000178 -0.013219
v 7.894589 3.674021 -0.013219
v 8.194589 3.674021 -0.013219
v 7.894589 3.674021 -1.624046
v 8.194589 3.674021 -1.624046
v 7.894589 -0.000178 -1.624046
v 8.194589 -0.000178 -1.624046
vt 0.375000 0.000000
vt 0.625000 0.000000
vt 0.375000 0.250000
vt 0.625000 0.250000
vt 0.375000 0.500000
vt 0.625000 0.500000
vt 0.375000 0.750000
vt 0.625000 0.750000
vt 0.375000 1.000000
vt 0.625000 1.000000
vt 0.875000 0.000000
vt 0.875000 0.250000
vt 0.125000 0.000000
vt 0.125000 0.250000
vn 0.000000 0.000000 1.000000
vn 0.000000 0.000000 1.000000
vn 0.000000 0.000000 1.000000
vn 0.000000 0.000000 1.000000
vn 0.000000 1.000000 0.000000
vn 0.000000 1.000000 0.000000
vn 0.000000 1.000000 0.000000
vn 0.000000 1.000000 0.000000
vn 0.000000 0.000000 -1.000000
vn 0.000000 0.000000 -1.000000
vn 0.000000 0.000000 -1.000000
vn 0.000000 0.000000 -1.000000
vn 0.000000 -1.000000 0.000000
vn 0.000000 -1.000000 0.000000
vn 0.000000 -1.000000 0.000000
vn 0.000000 -1.000000 0.000000
vn 1.000000 0.000000 0.000000
vn 1.000000 0.000000 0.000000
vn 1.000000 0.000000 0.000000
vn 1.000000 0.000000 0.000000
vn -1.000000 0.000000 0.000000
vn -1.000000 0.000000 0.000000
vn -1.000000 0.000000 0.000000
vn -1.000000 0.000000 0.000000
s 1
g pasted__pasted__pasted__pCube8 pasted__pasted__group88 pasted__group89 group95
usemtl pasted__pasted__pasted__phong7SG
f 3/3/1 1/1/2 4/4/3
f 4/4/3 1/1/2 2/2/4
s 2
f 5/5/5 3/3/6 6/6/7
f 6/6/7 3/3/6 4/4/8
s 3
f 7/7/9 5/5/10 8/8/11
f 8/8/11 5/5/10 6/6/12
s 4
f 1/9/13 7/7/14 2/10/15
f 2/10/15 7/7/14 8/8/16
s 5
f 4/4/17 2/2/18 6/12/19
f 6/12/19 2/2/18 8/11/20
s 6
f 5/14/21 7/13/22 3/3/23
f 3/3/23 7/13/22 1/1/24
g default
v 8.232343 1.737496 -0.176006
v 8.232343 1.729682 -0.191342
v 8.232343 1.717511 -0.203514
v 8.232343 1.702174 -0.211328
v 8.232343 1.685173 -0.214021
v 8.232343 1.668173 -0.211328
v 8.232343 1.652836 -0.203514
v 8.232343 1.640665 -0.191342
v 8.232343 1.632850 -0.176006
v 8.232343 1.630158 -0.159005
v 8.232343 1.632850 -0.142004
v 8.232343 1.640665 -0.126667
v 8.232342 1.652836 -0.114496
v 8.232343 1.668173 -0.106682
v 8.232343 1.685173 -0.103989
v 8.232343 1.702174 -0.106682
v 8.232343 1.717511 -0.114496
v 8.232343 1.729682 -0.126667
v 8.232343 1.737496 -0.142004
v 8.232343 1.740189 -0.159005
v 8.226869 1.737496 -0.176006
v 8.226869 1.729682 -0.191342
v 8.226869 1.717511 -0.203514
v 8.226869 1.702174 -0.211328
v 8.226869 1.685173 -0.214021
v 8.226869 1.668173 -0.211328
v 8.226869 1.652836 -0.203514
v 8.226869 1.640665 -0.191342
v 8.226869 1.632850 -0.176006
v 8.226869 1.630158 -0.159005
v 8.226869 1.632850 -0.142004
v 8.226869 1.640665 -0.126667
v 8.226869 1.652836 -0.114496
v 8.226869 1.668173 -0.106682
v 8.226869 1.685173 -0.103989
v 8.226869 1.702174 -0.106682
v 8.226869 1.717511 -0.114496
v 8.226869 1.729682 -0.126667
v 8.226869 1.737496 -0.142004
v 8.226869 1.740189 -0.159005
v 8.232343 1.685173 -0.159005
v 8.226869 1.685173 -0.159005
vt 0.648603 0.107966
vt 0.626409 0.064408
vt 0.591842 0.029841
vt 0.548284 0.007647
vt 0.500000 -0.000000
vt 0.451716 0.007647
vt 0.408159 0.029841
vt 0.373591 0.064409
vt 0.351397 0.107966
vt 0.343750 0.156250
vt 0.351397 0.204534
vt 0.373591 0.248091
vt 0.408159 0.282659
vt 0.451716 0.304853
vt 0.500000 0.312500
vt 0.548284 0.304853
vt 0.591841 0.282659
vt 0.626409 0.248091
vt 0.648603 0.204534
vt 0.656250 0.156250
vt 0.375000 0.312500
vt 0.387500 0.312500
vt 0.400000 0.312500
vt 0.412500 0.312500
vt 0.425000 0.312500
vt 0.437500 0.312500
vt 0.450000 0.312500
vt 0.462500 0.312500
vt 0.475000 0.312500
vt 0.487500 0.312500
vt 0.500000 0.312500
vt 0.512500 0.312500
vt 0.525000 0.312500
vt 0.537500 0.312500
vt 0.550000 0.312500
vt 0.562500 0.312500
vt 0.575000 0.312500
vt 0.587500 0.312500
vt 0.600000 0.312500
vt 0.612500 0.312500
vt 0.625000 0.312500
vt 0.375000 0.687500
vt 0.387500 0.687500
vt 0.400000 0.687500
vt 0.412500 0.687500
vt 0.425000 0.687500
vt 0.437500 0.687500
vt 0.450000 0.687500
vt 0.462500 0.687500
vt 0.475000 0.687500
vt 0.487500 0.687500
vt 0.500000 0.687500
vt 0.512500 0.687500
vt 0.525000 0.687500
vt 0.537500 0.687500
vt 0.550000 0.687500
vt 0.562500 0.687500
vt 0.575000 0.687500
vt 0.587500 0.687500
vt 0.600000 0.687500
vt 0.612500 0.687500
vt 0.625000 0.687500
vt 0.648603 0.795466
vt 0.626409 0.751908
vt 0.591842 0.717341
vt 0.548284 0.695147
vt 0.500000 0.687500
vt 0.451716 0.695147
vt 0.408159 0.717341
vt 0.373591 0.751909
vt 0.351397 0.795466
vt 0.343750 0.843750
vt 0.351397 0.892034
vt 0.373591 0.935591
vt 0.408159 0.970159
vt 0.451716 0.992353
vt 0.500000 1.000000
vt 0.548284 0.992353
vt 0.591841 0.970159
vt 0.626409 0.935591
vt 0.648603 0.892034
vt 0.656250 0.843750
vt 0.500000 0.156250
vt 0.500000 0.843750
vn 0.000002 0.951058 -0.309012
vn 0.000000 0.809011 -0.587794
vn 0.000000 0.951061 -0.309005
vn 0.000000 0.809010 -0.587795
vn 0.000000 0.587739 -0.809050
vn -0.000000 0.587748 -0.809044
vn -0.000004 0.309029 -0.951053
vn -0.000004 0.309039 -0.951049
vn -0.000000 0.000000 -1.000000
vn 0.000000 -0.000000 -1.000000
vn 0.000000 -0.308971 -0.951072
vn 0.000000 -0.308985 -0.951067
vn 0.000000 -0.587781 -0.809020
vn 0.000001 -0.587791 -0.809013
vn 0.000016 -0.809010 -0.587795
vn 0.000017 -0.809012 -0.587791
vn 0.000021 -0.951044 -0.309054
vn 0.000019 -0.951049 -0.309040
vn 0.000002 -1.000000 -0.000002
vn 0.000002 -1.000000 0.000002
vn 0.000018 -0.951061 0.309004
vn 0.000020 -0.951060 0.309006
vn 0.000017 -0.809045 0.587747
vn 0.000016 -0.809031 0.587765
vn 0.000001 -0.587670 0.809101
vn 0.000000 -0.587656 0.809111
vn 0.000000 -0.309017 0.951057
vn 0.000000 -0.309044 0.951048
vn 0.000000 -0.000000 1.000000
vn 0.000000 -0.000004 1.000000
vn 0.000006 0.309024 0.951054
vn 0.000005 0.309026 0.951054
vn 0.000001 0.587789 0.809014
vn -0.000002 0.587792 0.809012
vn -0.000017 0.809011 0.587794
vn -0.000019 0.809010 0.587795
vn -0.000020 0.951064 0.308995
vn -0.000015 0.951063 0.308998
vn 0.000018 1.000000 0.000008
vn 0.000020 1.000000 0.000008
vn 1.000000 0.000032 0.000000
vn 1.000000 0.000000 0.000000
vn 1.000000 -0.000003 0.000001
vn 1.000000 0.000032 0.000000
vn 1.000000 0.000000 0.000000
vn 1.000000 0.000000 0.000000
vn 1.000000 0.000000 0.000000
vn 1.000000 -0.000032 0.000000
vn 1.000000 -0.000032 0.000000
vn 1.000000 0.000000 0.000000
vn 1.000000 0.000000 0.000000
vn 1.000000 0.000000 0.000000
vn 1.000000 0.000064 0.000023
vn 1.000000 -0.000000 0.000014
vn 1.000000 -0.000064 -0.000009
vn 1.000000 -0.000032 0.000000
vn 1.000000 -0.000032 0.000000
vn 1.000000 0.000000 0.000000
vn 1.000000 0.000000 0.000000
vn 1.000000 0.000000 0.000000
vn 1.000000 0.000000 0.000000
vn -1.000000 -0.000016 0.000000
vn -1.000000 0.000016 0.000000
vn -1.000000 -0.000002 0.000000
vn -1.000000 0.000032 0.000000
vn -1.000000 0.000000 0.000000
vn -1.000000 0.000000 0.000000
vn -1.000000 0.000000 0.000000
vn -1.000000 -0.000032 0.000000
vn -1.000000 -0.000000 0.000000
vn -1.000000 0.000032 0.000000
vn -1.000000 0.000000 0.000000
vn -1.000000 0.000000 0.000000
vn -1.000000 0.000000 0.000000
vn -1.000000 -0.000032 0.000000
vn -1.000000 -0.000032 0.000000
vn -1.000000 0.000000 0.000000
vn -1.000000 0.000000 0.000000
vn -1.000000 0.000000 0.000000
vn -1.000000 0.000000 0.000000
vn -1.000000 0.000000 0.000000
vn -1.000000 0.000000 0.000000
s 1
g pCylinder1
usemtl lambert9SG
f 9/35/25 10/36/26 29/56/27
f 29/56/27 10/36/26 30/57/28
f 10/36/26 11/37/29 30/57/28
f 30/57/28 11/37/29 31/58/30
f 11/37/29 12/38/31 31/58/30
f 31/58/30 12/38/31 32/59/32
f 12/38/31 13/39/33 32/59/32
f 32/59/32 13/39/33 33/60/34
f 13/39/33 14/40/35 33/60/34
f 33/60/34 14/40/35 34/61/36
f 14/40/35 15/41/37 34/61/36
f 34/61/36 15/41/37 35/62/38
f 15/41/37 16/42/39 35/62/38
f 35/62/38 16/42/39 36/63/40
f 16/42/39 17/43/41 36/63/40
f 36/63/40 17/43/41 37/64/42
f 17/43/41 18/44/43 37/64/42
f 37/64/42 18/44/43 38/65/44
f 18/44/43 19/45/45 38/65/44
f 38/65/44 19/45/45 39/66/46
f 19/45/45 20/46/47 39/66/46
f 39/66/46 20/46/47 40/67/48
f 20/46/47 21/47/49 40/67/48
f 40/67/48 21/47/49 41/68/50
f 21/47/49 22/48/51 41/68/50
f 41/68/50 22/48/51 42/69/52
f 22/48/51 23/49/53 42/69/52
f 42/69/52 23/49/53 43/70/54
f 23/49/53 24/50/55 43/70/54
f 43/70/54 24/50/55 44/71/56
f 24/50/55 25/51/57 44/71/56
f 44/71/56 25/51/57 45/72/58
f 25/51/57 26/52/59 45/72/58
f 45/72/58 26/52/59 46/73/60
f 26/52/59 27/53/61 46/73/60
f 46/73/60 27/53/61 47/74/62
f 27/53/61 28/54/63 47/74/62
f 47/74/62 28/54/63 48/75/64
f 28/54/63 9/55/25 48/75/64
f 48/75/64 9/55/25 29/76/27
s 2
f 10/16/65 9/15/66 49/97/67
f 11/17/68 10/16/65 49/97/67
f 12/18/69 11/17/68 49/97/67
f 13/19/70 12/18/69 49/97/67
f 14/20/71 13/19/70 49/97/67
f 15/21/72 14/20/71 49/97/67
f 16/22/73 15/21/72 49/97/67
f 17/23/74 16/22/73 49/97/67
f 18/24/75 17/23/74 49/97/67
f 19/25/76 18/24/75 49/97/67
f 20/26/77 19/25/76 49/97/67
f 21/27/78 20/26/77 49/97/67
f 22/28/79 21/27/78 49/97/67
f 23/29/80 22/28/79 49/97/67
f 24/30/81 23/29/80 49/97/67
f 25/31/82 24/30/81 49/97/67
f 26/32/83 25/31/82 49/97/67
f 27/33/84 26/32/83 49/97/67
f 28/34/85 27/33/84 49/97/67
f 9/15/66 28/34/85 49/97/67
s 3
f 29/95/86 30/94/87 50/98/88
f 30/94/87 31/93/89 50/98/88
f 31/93/89 32/92/90 50/98/88
f 32/92/90 33/91/91 50/98/88
f 33/91/91 34/90/92 50/98/88
f 34/90/92 35/89/93 50/98/88
f 35/89/93 36/88/94 50/98/88
f 36/88/94 37/87/95 50/98/88
f 37/87/95 38/86/96 50/98/88
f 38/86/96 39/85/97 50/98/88
f 39/85/97 40/84/98 50/98/88
f 40/84/98 41/83/99 50/98/88
f 41/83/99 42/82/100 50/98/88
f 42/82/100 43/81/101 50/98/88
f 43/81/101 44/80/102 50/98/88
f 44/80/102 45/79/103 50/98/88
f 45/79/103 46/78/104 50/98/88
f 46/78/104 47/77/105 50/98/88
f 47/77/105 48/96/106 50/98/88
f 48/96/106 29/95/86 50/98/88
g default
v 7.894589 -0.000178 -0.013219
v 8.194589 -0.000178 -0.013219
v 7.894589 3.674021 -0.013219
v 8.194589 3.674021 -0.013219
v 7.894589 3.674021 -1.624046
v 8.194589 3.674021 -1.624046
v 7.894589 -0.000178 -1.624046
v 8.194589 -0.000178 -1.624046
vt 0.375000 0.000000
vt 0.625000 0.000000
vt 0.375000 0.250000
vt 0.625000 0.250000
vt 0.375000 0.500000
vt 0.625000 0.500000
vt 0.375000 0.750000
vt 0.625000 0.750000
vt 0.375000 1.000000
vt 0.625000 1.000000
vt 0.875000 0.000000
vt 0.875000 0.250000
vt 0.125000 0.000000
vt 0.125000 0.250000
vn 0.000000 0.000000 1.000000
vn 0.000000 0.000000 1.000000
vn 0.000000 0.000000 1.000000
vn 0.000000 0.000000 1.000000
vn 0.000000 1.000000 0.000000
vn 0.000000 1.000000 0.000000
vn 0.000000 1.000000 0.000000
vn 0.000000 1.000000 0.000000
vn 0.000000 0.000000 -1.000000
vn 0.000000 0.000000 -1.000000
vn 0.000000 0.000000 -1.000000
vn 0.000000 0.000000 -1.000000
vn 0.000000 -1.000000 0.000000
vn 0.000000 -1.000000 0.000000
vn 0.000000 -1.000000 0.000000
vn 0.000000 -1.000000 0.000000
vn 1.000000 0.000000 0.000000
vn 1.000000 0.000000 0.000000
vn 1.000000 0.000000 0.000000
vn 1.000000 0.000000 0.000000
vn -1.000000 0.000000 0.000000
vn -1.000000 0.000000 0.000000
vn -1.000000 0.000000 0.000000
vn -1.000000 0.000000 0.000000
s 1
g pasted__pasted__pasted__pCube8 pasted__pasted__group88 pasted__group89 group95
f 53/101/107 51/99/108 54/102/109
f 54/102/109 51/99/108 52/100/110
s 2
f 55/103/111 53/101/112 56/104/113
f 56/104/113 53/101/112 54/102/114
s 3
f 57/105/115 55/103/116 58/106/117
f 58/106/117 55/103/116 56/104/118
s 4
f 51/107/119 57/105/120 52/108/121
f 52/108/121 57/105/120 58/106/122
s 5
f 54/102/123 52/100/124 56/110/125
f 56/110/125 52/100/124 58/109/126
s 6
f 55/112/127 57/111/128 53/101/129
f 53/101/129 57/111/128 51/99/130
g default
v 8.232343 1.737496 -0.176006
v 8.232343 1.729682 -0.191342
v 8.232343 1.717511 -0.203514
v 8.232343 1.702174 -0.211328
v 8.232343 1.685173 -0.214021
v 8.232343 1.668173 -0.211328
v 8.232343 1.652836 -0.203514
v 8.232343 1.640665 -0.191342
v 8.232343 1.632850 -0.176006
v 8.232343 1.630158 -0.159005
v 8.232343 1.632850 -0.142004
v 8.232343 1.640665 -0.126667
v 8.232342 1.652836 -0.114496
v 8.232343 1.668173 -0.106682
v 8.232343 1.685173 -0.103989
v 8.232343 1.702174 -0.106682
v 8.232343 1.717511 -0.114496
v 8.232343 1.729682 -0.126667
v 8.232343 1.737496 -0.142004
v 8.232343 1.740189 -0.159005
v 8.226869 1.737496 -0.176006
v 8.226869 1.729682 -0.191342
v 8.226869 1.717511 -0.203514
v 8.226869 1.702174 -0.211328
v 8.226869 1.685173 -0.214021
v 8.226869 1.668173 -0.211328
v 8.226869 1.652836 -0.203514
v 8.226869 1.640665 -0.191342
v 8.226869 1.632850 -0.176006
v 8.226869 1.630158 -0.159005
v 8.226869 1.632850 -0.142004
v 8.226869 1.640665 -0.126667
v 8.226869 1.652836 -0.114496
v 8.226869 1.668173 -0.106682
v 8.226869 1.685173 -0.103989
v 8.226869 1.702174 -0.106682
v 8.226869 1.717511 -0.114496
v 8.226869 1.729682 -0.126667
v 8.226869 1.737496 -0.142004
v 8.226869 1.740189 -0.159005
v 8.232343 1.685173 -0.159005
v 8.226869 1.685173 -0.159005
vt 0.648603 0.107966
vt 0.626409 0.064408
vt 0.591842 0.029841
vt 0.548284 0.007647
vt 0.500000 -0.000000
vt 0.451716 0.007647
vt 0.408159 0.029841
vt 0.373591 0.064409
vt 0.351397 0.107966
vt 0.343750 0.156250
vt 0.351397 0.204534
vt 0.373591 0.248091
vt 0.408159 0.282659
vt 0.451716 0.304853
vt 0.500000 0.312500
vt 0.548284 0.304853
vt 0.591841 0.282659
vt 0.626409 0.248091
vt 0.648603 0.204534
vt 0.656250 0.156250
vt 0.375000 0.312500
vt 0.387500 0.312500
vt 0.400000 0.312500
vt 0.412500 0.312500
vt 0.425000 0.312500
vt 0.437500 0.312500
vt 0.450000 0.312500
vt 0.462500 0.312500
vt 0.475000 0.312500
vt 0.487500 0.312500
vt 0.500000 0.312500
vt 0.512500 0.312500
vt 0.525000 0.312500
vt 0.537500 0.312500
vt 0.550000 0.312500
vt 0.562500 0.312500
vt 0.575000 0.312500
vt 0.587500 0.312500
vt 0.600000 0.312500
vt 0.612500 0.312500
vt 0.625000 0.312500
vt 0.375000 0.687500
vt 0.387500 0.687500
vt 0.400000 0.687500
vt 0.412500 0.687500
vt 0.425000 0.687500
vt 0.437500 0.687500
vt 0.450000 0.687500
vt 0.462500 0.687500
vt 0.475000 0.687500
vt 0.487500 0.687500
vt 0.500000 0.687500
vt 0.512500 0.687500
vt 0.525000 0.687500
vt 0.537500 0.687500
vt 0.550000 0.687500
vt 0.562500 0.687500
vt 0.575000 0.687500
vt 0.587500 0.687500
vt 0.600000 0.687500
vt 0.612500 0.687500
vt 0.625000 0.687500
vt 0.648603 0.795466
vt 0.626409 0.751908
vt 0.591842 0.717341
vt 0.548284 0.695147
vt 0.500000 0.687500
vt 0.451716 0.695147
vt 0.408159 0.717341
vt 0.373591 0.751909
vt 0.351397 0.795466
vt 0.343750 0.843750
vt 0.351397 0.892034
vt 0.373591 0.935591
vt 0.408159 0.970159
vt 0.451716 0.992353
vt 0.500000 1.000000
vt 0.548284 0.992353
vt 0.591841 0.970159
vt 0.626409 0.935591
vt 0.648603 0.892034
vt 0.656250 0.843750
vt 0.500000 0.156250
vt 0.500000 0.843750
vn 0.000002 0.951058 -0.309012
vn 0.000000 0.809011 -0.587794
vn 0.000000 0.951061 -0.309005
vn 0.000000 0.809010 -0.587795
vn 0.000000 0.587739 -0.809050
vn -0.000000 0.587748 -0.809044
vn -0.000004 0.309029 -0.951053
vn -0.000004 0.309039 -0.951049
vn -0.000000 0.000000 -1.000000
vn 0.000000 -0.000000 -1.000000
vn 0.000000 -0.308971 -0.951072
vn 0.000000 -0.308985 -0.951067
vn 0.000000 -0.587781 -0.809020
vn 0.000001 -0.587791 -0.809013
vn 0.000016 -0.809010 -0.587795
vn 0.000017 -0.809012 -0.587791
vn 0.000021 -0.951044 -0.309054
vn 0.000019 -0.951049 -0.309040
vn 0.000002 -1.000000 -0.000002
vn 0.000002 -1.000000 0.000002
vn 0.000018 -0.951061 0.309004
vn 0.000020 -0.951060 0.309006
vn 0.000017 -0.809045 0.587747
vn 0.000016 -0.809031 0.587765
vn 0.000001 -0.587670 0.809101
vn 0.000000 -0.587656 0.809111
vn 0.000000 -0.309017 0.951057
vn 0.000000 -0.309044 0.951048
vn 0.000000 -0.000000 1.000000
vn 0.000000 -0.000004 1.000000
vn 0.000006 0.309024 0.951054
vn 0.000005 0.309026 0.951054
vn 0.000001 0.587789 0.809014
vn -0.000002 0.587792 0.809012
vn -0.000017 0.809011 0.587794
vn -0.000019 0.809010 0.587795
vn -0.000020 0.951064 0.308995
vn -0.000015 0.951063 0.308998
vn 0.000018 1.000000 0.000008
vn 0.000020 1.000000 0.000008
vn 1.000000 0.000032 0.000000
vn 1.000000 0.000000 0.000000
vn 1.000000 -0.000003 0.000001
vn 1.000000 0.000032 0.000000
vn 1.000000 0.000000 0.000000
vn 1.000000 0.000000 0.000000
vn 1.000000 0.000000 0.000000
vn 1.000000 -0.000032 0.000000
vn 1.000000 -0.000032 0.000000
vn 1.000000 0.000000 0.000000
vn 1.000000 0.000000 0.000000
vn 1.000000 0.000000 0.000000
vn 1.000000 0.000064 0.000023
vn 1.000000 -0.000000 0.000014
vn 1.000000 -0.000064 -0.000009
vn 1.000000 -0.000032 0.000000
vn 1.000000 -0.000032 0.000000
vn 1.000000 0.000000 0.000000
vn 1.000000 0.000000 0.000000
vn 1.000000 0.000000 0.000000
vn 1.000000 0.000000 0.000000
vn -1.000000 -0.000016 0.000000
vn -1.000000 0.000016 0.000000
vn -1.000000 -0.000002 0.000000
vn -1.000000 0.000032 0.000000
vn -1.000000 0.000000 0.000000
vn -1.000000 0.000000 0.000000
vn -1.000000 0.000000 0.000000
vn -1.000000 -0.000032 0.000000
vn -1.000000 -0.000000 0.000000
vn -1.000000 0.000032 0.000000
vn -1.000000 0.000000 0.000000
vn -1.000000 0.000000 0.000000
vn -1.000000 0.000000 0.000000
vn -1.000000 -0.000032 0.000000
vn -1.000000 -0.000032 0.000000
vn -1.000000 0.000000 0.000000
vn -1.000000 0.000000 0.000000
vn -1.000000 0.000000 0.000000
vn -1.000000 0.000000 0.000000
vn -1.000000 0.000000 0.000000
vn -1.000000 0.000000 0.000000
s 1
g pCylinder1
f 59/133/131 60/134/132 79/154/133
f 79/154/133 60/134/132 80/155/134
f 60/134/132 61/135/135 80/155/134
f 80/155/134 61/135/135 81/156/136
f 61/135/135 62/136/137 81/156/136
f 81/156/136 62/136/137 82/157/138
f 62/136/137 63/137/139 82/157/138
f 82/157/138 63/137/139 83/158/140
f 63/137/139 64/138/141 83/158/140
f 83/158/140 64/138/141 84/159/142
f 64/138/141 65/139/143 84/159/142
f 84/159/142 65/139/143 85/160/144
f 65/139/143 66/140/145 85/160/144
f 85/160/144 66/140/145 86/161/146
f 66/140/145 67/141/147 86/161/146
f 86/161/146 67/141/147 87/162/148
f 67/141/147 68/142/149 87/162/148
f 87/162/148 68/142/149 88/163/150
f 68/142/149 69/143/151 88/163/150
f 88/163/150 69/143/151 89/164/152
f 69/143/151 70/144/153 89/164/152
f 89/164/152 70/144/153 90/165/154
f 70/144/153 71/145/155 90/165/154
f 90/165/154 71/145/155 91/166/156
f 71/145/155 72/146/157 91/166/156
f 91/166/156 72/146/157 92/167/158
f 72/146/157 73/147/159 92/167/158
f 92/167/158 73/147/159 93/168/160
f 73/147/159 74/148/161 93/168/160
f 93/168/160 74/148/161 94/169/162
f 74/148/161 75/149/163 94/169/162
f 94/169/162 75/149/163 95/170/164
f 75/149/163 76/150/165 95/170/164
f 95/170/164 76/150/165 96/171/166
f 76/150/165 77/151/167 96/171/166
f 96/171/166 77/151/167 97/172/168
f 77/151/167 78/152/169 97/172/168
f 97/172/168 78/152/169 98/173/170
f 78/152/169 59/153/131 98/173/170
f 98/173/170 59/153/131 79/174/133
s 2
f 60/114/171 59/113/172 99/195/173
f 61/115/174 60/114/171 99/195/173
f 62/116/175 61/115/174 99/195/173
f 63/117/176 62/116/175 99/195/173
f 64/118/177 63/117/176 99/195/173
f 65/119/178 64/118/177 99/195/173
f 66/120/179 65/119/178 99/195/173
f 67/121/180 66/120/179 99/195/173
f 68/122/181 67/121/180 99/195/173
f 69/123/182 68/122/181 99/195/173
f 70/124/183 69/123/182 99/195/173
f 71/125/184 70/124/183 99/195/173
f 72/126/185 71/125/184 99/195/173
f 73/127/186 72/126/185 99/195/173
f 74/128/187 73/127/186 99/195/173
f 75/129/188 74/128/187 99/195/173
f 76/130/189 75/129/188 99/195/173
f 77/131/190 76/130/189 99/195/173
f 78/132/191 77/131/190 99/195/173
f 59/113/172 78/132/191 99/195/173
s 3
f 79/193/192 80/192/193 100/196/194
f 80/192/193 81/191/195 100/196/194
f 81/191/195 82/190/196 100/196/194
f 82/190/196 83/189/197 100/196/194
f 83/189/197 84/188/198 100/196/194
f 84/188/198 85/187/199 100/196/194
f 85/187/199 86/186/200 100/196/194
f 86/186/200 87/185/201 100/196/194
f 87/185/201 88/184/202 100/196/194
f 88/184/202 89/183/203 100/196/194
f 89/183/203 90/182/204 100/196/194
f 90/182/204 91/181/205 100/196/194
f 91/181/205 92/180/206 100/196/194
f 92/180/206 93/179/207 100/196/194
f 93/179/207 94/178/208 100/196/194
f 94/178/208 95/177/209 100/196/194
f 95/177/209 96/176/210 100/196/194
f 96/176/210 97/175/211 100/196/194
f 97/175/211 98/194/212 100/196/194
f 98/194/212 79/193/192 100/196/194
